<svg id="Pokefinder_Assets_NEW_Application_Background" data-name="Pokefinder_Assets NEW_Application_Background" xmlns="http://www.w3.org/2000/svg" xmlns:xlink="http://www.w3.org/1999/xlink" width="800" height="600" viewBox="0 0 800 600">
  <defs>
    <clipPath id="clip-path">
      <rect id="Rectangle_35" data-name="Rectangle 35" width="800" height="600" fill="none"/>
    </clipPath>
  </defs>
  <rect id="Rectangle_34" data-name="Rectangle 34" width="800" height="600" fill="#222"/>
  <g id="Group_26" data-name="Group 26" clip-path="url(#clip-path)">
    <path id="Path_647" data-name="Path 647" d="M941.16,356.78,755.58,326.06c-18.83,5.37-36.78,7.08-54.56,7.59s-23.62.77-40.54-2.53c-5.3-1-14-4.92-30.18-11.93a127.867,127.867,0,0,1-13.8-7,208.09,208.09,0,0,0-34.27-125.34C517.63,88.64,383.89,60.36,284.06,123.9S155.54,319.1,220.13,417.31,418.5,543.65,518.34,480.1a211.35,211.35,0,0,0,73.88-79.83,134.834,134.834,0,0,1,20.83-1.51c17.55.17,23.61.28,31.05,2,16.86,3.87,22.79,8.1,38.83,15.58s31.73,16.52,46.67,29l182.57,44.51c2,.5,4.14.88,6.15,1.22,37.72,6.23,73.42-18.79,79.75-55.89S978.88,363,941.16,356.78ZM284.37,376.43c-41.69-63.38-23.18-148.34,41.25-189.35s150.78-22.8,192.47,40.58S541.27,376,476.84,417,326.05,439.81,284.37,376.43Z" fill="#292929"/>
    <path id="Path_648" data-name="Path 648" d="M826.72,31.22A489.371,489.371,0,0,1,907.6,286.31L782.21,259.79a370.141,370.141,0,0,0-45-139.54l-95.88,61a223.142,223.142,0,0,0-29.71-45.17l95.88-61C587.76-81.54,362.7-122.79,192.9-14.71S-30.89,312.22,65.28,483.84l95.88-61A223.144,223.144,0,0,0,190.87,468L95,529c119.7,156.63,344.76,197.88,514.56,89.8A377.741,377.741,0,0,0,719.11,513l127.45,26.9a499.76,499.76,0,0,1-170,180.72c-234.62,149.33-549,83-700.79-147.75S-108.69,32.8,125.93-116.53,674.92-199.58,826.72,31.22Z" fill="#292929"/>
  </g>
</svg>
