<svg id="Pokefinder_Assets_NEW_Emerald_Button" data-name="Pokefinder_Assets NEW_Emerald_Button" xmlns="http://www.w3.org/2000/svg" xmlns:xlink="http://www.w3.org/1999/xlink" width="195.886" height="96.341" viewBox="0 0 195.886 96.341">
  <defs>
    <clipPath id="clip-path">
      <rect id="Rectangle_8" data-name="Rectangle 8" width="195.886" height="96.341" rx="18.94" fill="none"/>
    </clipPath>
  </defs>
  <rect id="Rectangle_7" data-name="Rectangle 7" width="195.886" height="96.341" rx="18.94" fill="#006436"/>
  <g id="Group_13" data-name="Group 13" clip-path="url(#clip-path)">
    <path id="Path_228" data-name="Path 228" d="M162.3-21.007c-1.161-.247-3.433.955-4.306,2.124-1.219,2.849-7.172,22.05-11.124,34.927a4.2,4.2,0,0,1-2.948,2.841h0c-2.19.28-3.927,1.046-3.458,3.886a47.753,47.753,0,0,1,.058,13.931c2.684-9.954,5.162-15.018,6.3-17.019l.889-.552c1.441.346,2.684,1.515,3.763,3.293,1.9-12.128,7.41-15.693,8.892-17.225a5.764,5.764,0,0,0,1.6-3.837Z" transform="translate(-24.798 3.716)" fill="#7ac144"/>
    <path id="Path_229" data-name="Path 229" d="M27.885,11.45l-16.8,2.1,6.068,4.2" transform="translate(-1.957 -2.023)" fill="#5a9328"/>
    <path id="Path_230" data-name="Path 230" d="M17.005,18.338a.725.725,0,0,1-.371-.165l-6.068-4.2a.708.708,0,0,1,.3-1.276l16.788-2.1a.692.692,0,0,1,.774.609.7.7,0,0,1-.6.782L12.839,13.868,17.4,17.021a.7.7,0,0,1,.181.98A.716.716,0,0,1,17.005,18.338Z" transform="translate(-1.814 -1.871)" fill="#ed2f58"/>
    <path id="Path_231" data-name="Path 231" d="M30.056,16.83,18.15,28.736l-1.4-7.7" transform="translate(-2.959 -2.973)" fill="#5a9328"/>
    <path id="Path_232" data-name="Path 232" d="M18,29.292a.568.568,0,0,1-.206,0,.683.683,0,0,1-.486-.543l-1.4-7.7a.7.7,0,0,1,.568-.823.683.683,0,0,1,.823.56l1.153,6.365L29.41,16.192a.7.7,0,0,1,.988.988L18.493,29.086a.675.675,0,0,1-.494.206Z" transform="translate(-2.808 -2.829)" fill="#ed2f58"/>
    <path id="Path_233" data-name="Path 233" d="M28.86,80.36c0,.519,2.783,4.866,2.783,4.866s-5.912,5.541,1.219,9.567l.527,5.22L26.6,97.749,22.43,83.143Z" transform="translate(-3.962 -14.195)" fill="#7ac144"/>
    <path id="Path_234" data-name="Path 234" d="M33.221,100.63a.823.823,0,0,1-.247-.041L26.19,98.325a.766.766,0,0,1-.51-.527L21.5,83.191a.823.823,0,0,1,.445-.939l6.439-2.783a.823.823,0,0,1,1.087.626,43.457,43.457,0,0,0,2.668,4.545.823.823,0,0,1-.124.988s-2.33,2.24-2.034,4.636c.173,1.391,1.219,2.627,3.1,3.68a.823.823,0,0,1,.4.609L34,99.766A.823.823,0,0,1,33.221,100.63Zm-6.151-3.656,5.253,1.746-.362-3.615c-2.124-1.276-3.293-2.841-3.532-4.66A7.391,7.391,0,0,1,30.5,84.97c-1.235-1.943-1.877-3.071-2.215-3.746l-5.08,2.2Zm2.412-16.788Z" transform="translate(-3.794 -14.029)" fill="#e4536e"/>
    <path id="Path_235" data-name="Path 235" d="M60.565,42.12,56.44,45.595,58.7,59.164l5.739,2.956" transform="translate(-9.97 -7.44)" fill="#7ac144"/>
    <path id="Path_236" data-name="Path 236" d="M64.275,62.69a.823.823,0,0,1-.362-.082L58.15,59.652a.823.823,0,0,1-.412-.568L55.5,45.515a.823.823,0,0,1,.272-.733l4.117-3.475a.823.823,0,1,1,1,1.2L57.112,45.7l2.124,12.737,5.393,2.783a.779.779,0,0,1-.354,1.474Z" transform="translate(-9.802 -7.228)" fill="#e4536e"/>
    <path id="Path_237" data-name="Path 237" d="M84.12,43l6.43,3.656s3.483,6.587,2.61,10.959" transform="translate(-14.859 -7.595)" fill="#7ac144"/>
    <path id="Path_238" data-name="Path 238" d="M92.986,58.195h-.148a.823.823,0,0,1-.618-.922c.725-3.623-1.877-9.131-2.47-10.243L83.517,43.5a.785.785,0,0,1,.774-1.367l6.43,3.656a.823.823,0,0,1,.313.321c.148.28,3.6,6.908,2.684,11.469A.823.823,0,0,1,92.986,58.195Z" transform="translate(-14.684 -7.426)" fill="#e4536e"/>
    <path id="Path_239" data-name="Path 239" d="M7.568,66.83l-12.7,3.829s-6.587,29.748,8.53,42.815l15.133-1.564" transform="translate(1.16 -11.805)" fill="#7ac144"/>
    <path id="Path_240" data-name="Path 240" d="M3.226,114.073a.774.774,0,0,1-.51-.2c-6.365-5.475-9.88-14.763-10.21-26.858a77.116,77.116,0,0,1,1.433-16.69.774.774,0,0,1,.535-.585l12.7-3.829a.783.783,0,1,1,.453,1.5l-12.243,3.7a76.885,76.885,0,0,0-1.309,15.9c.214,8.011,2.034,18.9,9.411,25.467l14.82-1.531a.782.782,0,0,1,.132,1.556L3.3,114.065Z" transform="translate(1.327 -11.639)" fill="#e4536e"/>
    <path id="Path_241" data-name="Path 241" d="M139.788,88.607l-.519-13.215L119.962,63.56l-9.222,6.784" transform="translate(-19.561 -11.227)" fill="#7ac144"/>
    <path id="Path_242" data-name="Path 242" d="M139.516,89.435a1.046,1.046,0,0,1-1.029-1.029l-.494-12.663L119.755,64.6,111.1,70.967a1.046,1.046,0,1,1-1.235-1.647l9.213-6.784a1.046,1.046,0,0,1,1.169-.049l19.308,11.832a1.021,1.021,0,0,1,.494.823l.527,13.215a1.054,1.054,0,0,1-1,1.087Z" transform="translate(-19.305 -11.01)" fill="#e4536e"/>
    <path id="Path_243" data-name="Path 243" d="M99.56,89.95l.5,13.215,19.3,11.856,9.222-6.776" transform="translate(-17.586 -15.889)" fill="#7ac144"/>
    <path id="Path_244" data-name="Path 244" d="M119.137,115.857a1.12,1.12,0,0,1-.552-.156L99.294,103.844a1.021,1.021,0,0,1-.494-.823L98.29,89.847a1.046,1.046,0,1,1,2.091-.082l.478,12.663,18.221,11.189,8.662-6.356a1.046,1.046,0,1,1,1.235,1.647l-9.222,6.768A1.087,1.087,0,0,1,119.137,115.857Z" transform="translate(-17.362 -15.678)" fill="#e4536e"/>
    <path id="Path_245" data-name="Path 245" d="M226.4,29.46l-.519-9.74s5.764,1.564,10.259,9.567l-6.258,15.479Z" transform="translate(-39.899 -3.483)" fill="#5a9328"/>
    <path id="Path_246" data-name="Path 246" d="M229.662,45.585h-.082a1.046,1.046,0,0,1-.939-.823l-3.475-15.315a.627.627,0,0,1,0-.173l-.527-9.74a1.046,1.046,0,0,1,.387-.865,1.029,1.029,0,0,1,.93-.2c.255.066,6.216,1.778,10.9,10.061a1.054,1.054,0,0,1,.058.906L230.65,44.918a1.038,1.038,0,0,1-.988.667Zm-2.47-16.467,2.725,11.972,4.825-11.922a20.468,20.468,0,0,0-7.978-8.036Z" transform="translate(-39.68 -3.256)" fill="#ed2f58"/>
    <path id="Path_247" data-name="Path 247" d="M229.692,28.156l5.615-8.6s23.054,28.571,3.829,47.08L229.05,70.147" transform="translate(-40.459 -3.455)" fill="#7ac144"/>
    <path id="Path_248" data-name="Path 248" d="M228.83,70.941a1.046,1.046,0,0,1-.346-2.025l9.88-3.45c7.509-7.353,9.148-17.184,4.874-29.221A63.621,63.621,0,0,0,235.161,21.1l-4.808,7.361a1.046,1.046,0,0,1-1.746-1.144l5.615-8.6a1.046,1.046,0,0,1,1.647-.091,63.829,63.829,0,0,1,9.288,16.912c4.545,12.787,2.627,23.7-5.549,31.584a1.12,1.12,0,0,1-.379.231l-10.086,3.524a1.013,1.013,0,0,1-.313.058Z" transform="translate(-40.239 -3.228)" fill="#e4536e"/>
    <path id="Path_249" data-name="Path 249" d="M182.495,29.273c-.206-4.825-3.063-10.63-10.877-17.373,0,0-27.006,41.6-24.767,53.173,0,0,3.1.988,4.668-.7,6.957-10.7,12.976-13.939,19.308-18.633,2.594-1.507,9.675-5.871,11.329-12.877a4.026,4.026,0,0,1,2.108-2.561l.132-1.112Z" transform="translate(-25.917 -2.102)" fill="#5a9328"/>
    <path id="Path_250" data-name="Path 250" d="M33.939,10.8A3.771,3.771,0,0,0,31.214,9.9l-1.144.082-.42.049-.5.074-.823.148c-.461.1-.947.214-1.523.362a28.942,28.942,0,0,0-2.9,1.013,23.581,23.581,0,0,0-5.36,2.906,18.361,18.361,0,0,0-4.265,4.3l-.206.288h0l-.321.5c-.082.14-.173.28-.255.428h0c-.058.107-.115.214-.181.321-.165.3-.338.626-.486.972-1.186,2.412-1.326,3.088-.757,3.615a.914.914,0,0,0,.782.239h0c.552-.091.823-.535,1.309-1.424a9.566,9.566,0,0,1,.716-1.136v-.041c.165-.214.362-.428.568-.659l.247-.272.272-.263.387-.371.239-.206A14.623,14.623,0,0,1,20.708,18.3a18.748,18.748,0,0,1,4.66-1.219,22.947,22.947,0,0,1,2.388-.181H29.8a3.755,3.755,0,0,0,4.117-6.208Z" transform="translate(-2.075 -1.747)" fill="#7ac144"/>
    <path id="Path_251" data-name="Path 251" d="M36.162,11.79c-2.906,0-2.915,4.512,0,4.512S39.076,11.79,36.162,11.79Z" transform="translate(-6.002 -2.083)" fill="#241e1c"/>
    <path id="Path_252" data-name="Path 252" d="M60.34,46.272h0v-.041a.46.46,0,0,0,0-.107v-.247a2.212,2.212,0,0,0-.049-.56,7.588,7.588,0,0,0-.156-1.177c-.115-.823-.272-1.647-.445-2.47A45.8,45.8,0,0,0,58.4,36.837a40.7,40.7,0,0,0-4.421-9.288c-.469-.733-.98-1.424-1.5-2.141l-.823-1.021c-.132-.173-.28-.338-.428-.5l-.436-.494-.445-.494c-.148-.165-.3-.313-.461-.469-.313-.313-.626-.642-.955-.939l-1-.9c-.173-.156-.346-.3-.519-.428l-.543-.42-.535-.42c-.181-.148-.371-.263-.56-.4l-1.136-.782-1.186-.708-.609-.354-.618-.313c-.42-.206-.823-.436-1.268-.634l-1.309-.552c-.214-.091-.436-.2-.659-.272l-.675-.239-1.375-.469L38.4,14.54h1.466l1.482.041c.494,0,.988.091,1.482.132l.749.074a4.478,4.478,0,0,1,.741.115l1.507.247,1.482.346c.247.058.5.107.749.181l.733.222.749.222a7.655,7.655,0,0,1,.733.247l1.466.535c.486.189.955.412,1.441.618.239.107.486.206.725.321l.7.354.708.354c.239.115.469.239.7.379l1.383.823c.889.56,1.8,1.128,2.668,1.754a51.181,51.181,0,0,1,9.4,8.736A58.963,58.963,0,0,1,73.407,35.5c.609.914,1.21,1.844,1.778,2.816.288.486.568.98.823,1.49.14.255.28.527.412.823l.214.428.107.239.058.124.074.2a8.612,8.612,0,0,1-16.558,4.726Z" transform="translate(-6.525 -2.568)" fill="#7ac144"/>
    <path id="Path_253" data-name="Path 253" d="M68.336,53.533a9.938,9.938,0,0,1-9.543-7.2,1.243,1.243,0,0,1,0-.6v-.527h0a8.165,8.165,0,0,0-.14-1.112c-.124-.823-.288-1.647-.436-2.363a44.905,44.905,0,0,0-1.309-4.743,39.415,39.415,0,0,0-4.281-8.983c-.379-.6-.823-1.161-1.21-1.746l-.231-.313-.823-1A5.333,5.333,0,0,0,50,24.509l-.947-1.021-.263-.263-.173-.173-.329-.338c-.2-.2-.387-.387-.568-.552l-1-.889h0l-.428-.354L45.216,20.1c-.082-.066-.181-.124-.288-.2l-.222-.156L43.626,19l-1.161-.733-.214-.124-.338-.222-.6-.3-.436-.222-.766-.379-1.293-.543-.231-.107-.362-.091L36.2,15.568a1.293,1.293,0,0,1-.873-1.416,1.309,1.309,0,0,1,1.243-1.169l2.19-.082h.823l1.482.082h.041a8.524,8.524,0,0,1,1.037.091l.478.041.766.074.576.091h.231l1.515.255h.082l1.49.346.255.058a2.126,2.126,0,0,1,.576.148l1.474.445a7.955,7.955,0,0,1,.823.272l1.449.535c.371.14.708.288,1.037.436l.461.2.247.115.519.231h0l1.408.716c.288.14.543.272.782.412l1.359.823h.049l.206.124c.823.527,1.7,1.079,2.536,1.647a52.6,52.6,0,0,1,9.707,9.073,61.9,61.9,0,0,1,4.034,5.327c.749,1.128,1.309,2.017,1.82,2.89.321.543.609,1.054.873,1.531l.329.626.091.189h0l.206.428c0,.041.058.115.091.189l.1.214v.058l.074.2a.536.536,0,0,1,0,.107,9.88,9.88,0,0,1-9.452,12.663ZM61.4,45.917a7.31,7.31,0,1,0,14-4.224l-.115-.288-.049-.091-.3-.609c-.1-.189-.2-.387-.3-.568-.247-.469-.519-.939-.823-1.466-.486-.823-1.021-1.647-1.746-2.75a59.17,59.17,0,0,0-3.853-5.1,49.97,49.97,0,0,0-9.23-8.571c-.774-.568-1.6-1.087-2.4-1.589l-.189-.115-1.359-.782c-.189-.115-.387-.222-.626-.338l-1.4-.675-.436-.2-.231-.132-.469-.206c-.321-.14-.618-.272-.914-.387l-1.449-.535-.667-.189-1.441-.469-.412-.1-.28-.066-1.424-.329-1.457-.247-.263-.041h0l.107.066.189.115,1.2.716.074.049,1.136.774.189.132c.132.091.288.2.445.321l1.062.823c.165.132.379.3.585.494l1,.881c.247.231.469.453.675.667l.321.321.173.173.321.329h0l.881,1c.173.189.338.387.486.568l.823,1v.049l.247.338c.436.6.889,1.219,1.3,1.877A41.728,41.728,0,0,1,59.336,36.1a47.846,47.846,0,0,1,1.391,5.031c.148.7.329,1.647.461,2.519.074.461.124.823.156,1.227a3.956,3.956,0,0,1,0,.428v.453Zm-2.363.9Zm-.247-.823ZM58.793,45.991Z" transform="translate(-6.238 -2.279)" fill="#79c144"/>
    <path id="Path_254" data-name="Path 254" d="M67.047,33.718a26.9,26.9,0,0,0-1.531-2.692c.823-1.441.338-3.73-1.268-5.689s-3.878-2.906-5.459-2.314c-.371-.346-.757-.683-1.153-1.029.42-1.647-.823-3.8-3.145-5.138-2.025-1.169-4.166-1.326-5.508-.543a39.783,39.783,0,0,0-5.508-2.2,1.046,1.046,0,0,0-.618,1.993,36.68,36.68,0,0,1,4.94,1.935,3.507,3.507,0,0,0,.469,2.355A7.723,7.723,0,0,0,54.5,24.06a3.977,3.977,0,0,0,1.844-.412c.346.3.675.593,1,.889a3.862,3.862,0,0,0-.165,1.9,7.188,7.188,0,0,0,1.647,3.417,6.167,6.167,0,0,0,4.43,2.47,2.882,2.882,0,0,0,.659-.074A22.682,22.682,0,0,1,65.154,34.6a1.046,1.046,0,0,0,.947.6,1.087,1.087,0,0,0,.445-.1A1.046,1.046,0,0,0,67.047,33.718ZM51.708,21.673a5.689,5.689,0,0,1-2.124-2.034,2.594,2.594,0,0,1-.3-.823,1.186,1.186,0,0,1,.107-.823,1.737,1.737,0,0,1,1.564-.642h.132a5.763,5.763,0,0,1,2.651.823,5.1,5.1,0,0,1,2.314,2.47,1.4,1.4,0,0,1,0,1.169,1.515,1.515,0,0,1-1.161.618A5.22,5.22,0,0,1,51.708,21.673ZM62.774,30.73a5.162,5.162,0,0,1-2.832-1.894,5.764,5.764,0,0,1-1.268-2.651,2.874,2.874,0,0,1,0-.362,1.482,1.482,0,0,1,.412-1.219,1.177,1.177,0,0,1,.766-.231,2.083,2.083,0,0,1,.436.049,5.179,5.179,0,0,1,2.75,1.943A5.269,5.269,0,0,1,64.33,29.33a1.5,1.5,0,0,1-.412,1.268,1.416,1.416,0,0,1-1.144.156Z" transform="translate(-7.453 -2.488)" fill="#ffe41d"/>
    <path id="Path_255" data-name="Path 255" d="M60.3,39.216s11.436-3.293,19.135.906c0,0,2.956,3.524,4.52,11.4L62.992,48.224C63.651,48.068,62.819,44.124,60.3,39.216Z" transform="translate(-10.651 -6.71)" fill="#5a9328"/>
    <path id="Path_256" data-name="Path 256" d="M83.787,52.027h-.1L62.725,48.734a.65.65,0,0,1-.552-.626.634.634,0,0,1,.214-.5c.082-.716-.585-3.829-2.841-8.234a.667.667,0,0,1,0-.56.65.65,0,0,1,.42-.371c.478-.132,11.782-3.293,19.629.972a.651.651,0,0,1,.181.156c.132.148,3.088,3.738,4.668,11.683a.651.651,0,0,1-.173.576.642.642,0,0,1-.486.2ZM63.7,47.548l19.258,3.038c-1.408-6.332-3.689-9.526-4.117-10.094-6.241-3.335-15.125-1.647-17.76-.988C62.717,42.8,63.738,46,63.7,47.548Z" transform="translate(-10.507 -6.569)" fill="#5a9328"/>
    <path id="Path_257" data-name="Path 257" d="M72.71,41.91s3.829,4.866,5.393,15.825" transform="translate(-12.843 -7.403)" fill="#7ac144"/>
    <path id="Path_258" data-name="Path 258" d="M77.967,58.383a.823.823,0,0,1-.774-.675c-1.515-10.572-5.2-15.405-5.2-15.454a.823.823,0,0,1,1.235-.963c.156.206,3.969,5.162,5.549,16.2a.823.823,0,0,1-.667.881Z" transform="translate(-12.707 -7.268)" fill="#e4536e"/>
    <path id="Path_259" data-name="Path 259" d="M191.116,27.045l-.379-.634-.469-.576A53.206,53.206,0,0,0,174.649,12.29a34.647,34.647,0,0,0-16.368-4.38h-.288c-16.755,0-27.764,12.556-28.974,14a11.09,11.09,0,1,0,17,14.244c.049-.066,5.533-6.126,12.07-6.068,4.57,0,9.419,3.112,14.425,9.123,4.4,7.55,5.467,15.3,2.9,21.35-3.491,8.234-13.668,14.425-29.435,17.958-16.031,3.59-27.533-4.117-44.972-16.871C93.35,56.019,85.224,50.058,76.084,45.529c-3.508-2.734-20.724-8.464-30.522-7.484a65.588,65.588,0,0,0-7.295.436A43.243,43.243,0,0,0,11.829,50.626,37.142,37.142,0,0,0,.607,74.676,30.827,30.827,0,0,0,7.63,96.265c5.187,6.249,12.976,10.6,22.519,12.6l.527.115.535.058a73.229,73.229,0,0,0,7.789.436c10.325,0,19.069-2.47,26.068-7.41,8.094-5.764,13.281-14.409,15.018-25.1.115-.733.214-1.466.3-2.207h.148l-.124-.181.049-.436c2.47,1.729,4.94,3.549,7.451,5.4,10.58,7.764,22.041,16.179,35.627,19.983a4.052,4.052,0,0,1-.14-1.219c0-.124,0-.255,0-.379A95.648,95.648,0,0,1,113.2,95.359a1.046,1.046,0,0,1,.609-1.993,91.81,91.81,0,0,0,10.366,2.569,7.9,7.9,0,0,1,3.162-2.519,18.2,18.2,0,0,1,8.341-1.5c5.327.206,9.666,2.24,11.2,4.94a68.494,68.494,0,0,0,8.835-1.6c-.173-1.581.535-3.293,2.05-5.006A19.7,19.7,0,0,1,173.3,84.491a8.1,8.1,0,0,1,3.5,1.21,43.318,43.318,0,0,0,6.422-5.261,1.046,1.046,0,1,1,1.54,1.408,43.1,43.1,0,0,1-6.472,5.459,4.356,4.356,0,0,1,.552,1.647c.3-.2.609-.4.906-.6a44.51,44.51,0,0,0,16.1-19.118C201.326,56.34,199.6,40.968,191.116,27.045ZM81.692,72.527a1.07,1.07,0,0,1-.683.247,1.046,1.046,0,0,1-.823-.362,45.717,45.717,0,0,0-6.076-5.533,6.274,6.274,0,0,1-2.47,1.1c-1.227-.65-2.47-1.276-3.722-1.853a13.3,13.3,0,0,0,2.141,0,6.587,6.587,0,0,0,2.24-.576A2.264,2.264,0,0,0,73.466,64.4a1.812,1.812,0,0,0,.1-.527,4.561,4.561,0,0,0-1.507-3.022,16.788,16.788,0,0,0-6.183-3.894,17.76,17.76,0,0,0-6.126-1.219,7.241,7.241,0,0,0-1.046.049,7.352,7.352,0,0,0-1.77.371A2.528,2.528,0,0,0,55.286,57.5a1.556,1.556,0,0,0-.091.387c-.14,1.12.757,2.651,2.47,4.117l.165.049h0L57.666,62,58.275,65a31.049,31.049,0,0,1-.115,8.407c-.634,3.927-2.569,15.809-24.017,13.668-5.549-1.251-11.823-4.2-11.428-11.082.247-4.281,2.989-8.884,7.616-11.955h-.066a7.773,7.773,0,0,1-3.293-1.844c-1.7.881-3.384,1.869-5.08,2.964a1.041,1.041,0,1,1-1.136-1.746c1.713-1.112,3.433-2.108,5.154-3.005a3.376,3.376,0,0,1-.082-.4c-.3-1.811.749-3.672,2.939-5.228a18.715,18.715,0,0,1,7.715-2.939c5.764-.939,10.761.436,12.268,3.17a41.086,41.086,0,0,1,5.3.568,6.644,6.644,0,0,1,4.43-1.853,18.739,18.739,0,0,1,8.151,1.317,18.69,18.69,0,0,1,6.99,4.4c1.836,1.96,2.47,3.993,1.836,5.706a.484.484,0,0,0,0,.066,45.812,45.812,0,0,1,6.381,5.838A1.054,1.054,0,0,1,81.692,72.527Z" transform="translate(-0.097 -1.397)" fill="#7ac144"/>
    <path id="Path_260" data-name="Path 260" d="M53,66.312a2.47,2.47,0,0,0-1.194-1.556A11.058,11.058,0,0,0,45.944,63.4a20.846,20.846,0,0,0-3.244.272,16.722,16.722,0,0,0-6.834,2.577c-1.375.98-2.124,2.042-2.108,2.964a1.046,1.046,0,0,0,0,.231,2.4,2.4,0,0,0,1.136,1.523,6.751,6.751,0,0,0,1.861.823,12.424,12.424,0,0,0,2.281.453,22.33,22.33,0,0,1,7.27-1.886h.272c1.177-.14,2.338-.231,3.475-.272,1.754-1.021,2.816-2.223,2.956-3.293a1.91,1.91,0,0,0,0-.486Z" transform="translate(-5.962 -11.196)" fill="#7ac144"/>
    <path id="Path_261" data-name="Path 261" d="M63.246,68.028a37.509,37.509,0,0,0-3.919-.428,5.352,5.352,0,0,1-1.647,3.219,41.57,41.57,0,0,1,6.587.823A5.22,5.22,0,0,1,63.246,68.028Z" transform="translate(-10.189 -11.941)" fill="#7ac144"/>
    <ellipse id="Ellipse_6" data-name="Ellipse 6" cx="5.607" cy="5.475" rx="5.607" ry="5.475" transform="translate(170.411 42.51)" fill="#7ac144"/>
    <path id="Path_262" data-name="Path 262" d="M163.607,13.762a2.231,2.231,0,0,0-1.647-.642C158.93,14.766,151.841,19,147.033,24.7c0,0-3.293,4.5-6.949,18.114a36.584,36.584,0,0,1-2.174,8.283l4.94.049,1.194-4.026c.346-.338.56-.568.56-.568a42.247,42.247,0,0,0,7.8-16.385,18.11,18.11,0,0,1-1.82.659,10.514,10.514,0,0,1-2.89.453h-.148a4.479,4.479,0,0,1-3.12-1.153c.379-.922.725-1.713,1.037-2.38a1.721,1.721,0,0,0,.329.823,2.849,2.849,0,0,0,2.47.618,9.353,9.353,0,0,0,1.721-.346,16.755,16.755,0,0,0,2.906-1.186c.091-.6.165-1.169.214-1.713.124-4.117,1.795-3.878,4.652-3.17a7.41,7.41,0,0,0,3.977-3.055l1.4-1.836C164.043,16.01,164.225,14.511,163.607,13.762Z" transform="translate(-24.36 -2.317)" fill="#5a9328"/>
    <path id="Path_263" data-name="Path 263" d="M227.737,48.431a6.192,6.192,0,0,1,5.978-6.118,51.4,51.4,0,0,0-6.1-12.762.914.914,0,0,0-1.647.263c-3.162,10.317-18.559,10.7-18.715,10.7a.914.914,0,0,0-.708,1.474c6.011,7.83,5.92,14.928,4.784,19.505-1.2,4.833-3.878,7.987-5.393,8.678a.922.922,0,0,0-.51,1.062c2.132,8.135,7.41,11.362,11.527,12.639a21.061,21.061,0,0,0,6.258.939,14.715,14.715,0,0,0,2.116-.124.881.881,0,0,0,.568-.313,42.254,42.254,0,0,0,9.642-19.563,41.646,41.646,0,0,0,.585-10.6,6.3,6.3,0,0,1-2.091.354,6.208,6.208,0,0,1-6.29-6.134Z" transform="translate(-36.281 -5.147)" fill="#5a9328"/>
    <path id="Path_264" data-name="Path 264" d="M160.956,23.726c-2.857-.708-4.528-.963-4.652,3.17-.049.543-.123,1.112-.214,1.713a25.736,25.736,0,0,0,4.619-3.046,21.967,21.967,0,0,0,5.64-6.7l-1.4,1.836a7.41,7.41,0,0,1-3.993,3.03Z" transform="translate(-27.572 -3.331)" fill="none"/>
    <path id="Path_265" data-name="Path 265" d="M166.245,18.037a21.967,21.967,0,0,1-5.64,6.727,25.739,25.739,0,0,1-4.6,3.071c-.124.823-.288,1.647-.5,2.536a26.347,26.347,0,0,0,6.439-4c4.99-4.117,7.723-8.9,7.138-12.029Z" transform="translate(-27.467 -2.533)" fill="#ffe41d"/>
    <path id="Path_266" data-name="Path 266" d="M217.713,30.122a1.037,1.037,0,0,1-.823-.428C207.281,16.668,194.23,14.651,194.1,14.626a1.046,1.046,0,0,1-.749-.486l-2.61-4.281c-11.84-1.721-19.843,2.972-19.917,3.022a1.046,1.046,0,0,1-1.079-1.787c.362-.214,8.95-5.261,21.794-3.228a1.046,1.046,0,0,1,.725.486l2.626,4.3c2.594.486,14.5,3.351,23.68,15.809a1.046,1.046,0,0,1-.222,1.457,1.029,1.029,0,0,1-.634.206Z" transform="translate(-29.904 -1.304)" fill="#ffe41d"/>
    <path id="Path_267" data-name="Path 267" d="M146.4,53.894l.066-.082-.436-.132Z" transform="translate(-25.795 -9.482)" fill="#7ac144"/>
    <path id="Path_268" data-name="Path 268" d="M148,69.233a21.9,21.9,0,0,1,1.6-4.117h0a28.092,28.092,0,0,1,3.763-5.566A22.231,22.231,0,0,0,148,69.233Z" transform="translate(-26.143 -10.519)" fill="#5a9328"/>
    <path id="Path_269" data-name="Path 269" d="M203.283,114.291a16.138,16.138,0,0,0,6.307-4.01,6.348,6.348,0,0,0,1.375-2.231A77.444,77.444,0,0,1,195,115.18a8.463,8.463,0,0,0,.881.156A15.99,15.99,0,0,0,203.283,114.291Z" transform="translate(-34.445 -19.086)" fill="none"/>
    <path id="Path_270" data-name="Path 270" d="M45.472,71.754H45.2c-10.572.972-17.291,8.621-17.694,15.446s5.879,9.831,11.428,11.049c21.449,2.141,23.383-9.74,24.017-13.668a33.256,33.256,0,0,0-.329-11.362A41.909,41.909,0,0,0,45.472,71.754Z" transform="translate(-4.855 -12.62)" fill="none"/>
    <path id="Path_271" data-name="Path 271" d="M202.323,102.755a43.09,43.09,0,0,0,6.472-5.459,1.046,1.046,0,1,0-1.54-1.392,43.316,43.316,0,0,1-6.406,5.344,8.1,8.1,0,0,0-3.5-1.21,19.7,19.7,0,0,0-15.537,5.764,6.58,6.58,0,0,0-2.05,5.006,68.5,68.5,0,0,1-8.818,1.564c-1.531-2.725-5.871-4.759-11.2-4.94a18.2,18.2,0,0,0-8.341,1.5,7.9,7.9,0,0,0-3.162,2.519,91.806,91.806,0,0,1-10.366-2.569,1.046,1.046,0,0,0-.609,1.993,95.641,95.641,0,0,0,10.193,2.561v.379a4.051,4.051,0,0,0,.14,1.219c.889.247,1.787.478,2.7.683a2.75,2.75,0,0,1-.758-1.82.338.338,0,0,0,0-.091,2.981,2.981,0,0,1,1.144-1.935,7.117,7.117,0,0,1,1.647-1.054,15.521,15.521,0,0,1,6.587-1.309h.823c4.117.156,7.336,1.523,8.843,3.1a2.857,2.857,0,0,1,.939,2.034h0a3.038,3.038,0,0,1-1.268,2.116c.972-.107,1.951-.239,2.948-.4a4.3,4.3,0,0,0,.412-1.647v-.288a68.959,68.959,0,0,0,8.958-1.647,4.941,4.941,0,0,0,1.153,1.144c1.029-.3,2.034-.609,3.03-.93a5.146,5.146,0,0,1-1.9-.823,2.4,2.4,0,0,1-.823-1.062,2.19,2.19,0,0,1-.132-.823,5.269,5.269,0,0,1,1.531-3.071,16.138,16.138,0,0,1,6.307-4.01,17.455,17.455,0,0,1,5.912-1.144,10.991,10.991,0,0,1,1.5.1,7.278,7.278,0,0,1,1.811.461,3.187,3.187,0,0,1,1.7,1.391.564.564,0,0,0,.091.206,2.56,2.56,0,0,1,0,1.647c.758-.461,1.5-.93,2.223-1.416a4.356,4.356,0,0,0-.552-1.647Z" transform="translate(-24.132 -16.862)" fill="#ffe41d"/>
    <path id="Path_272" data-name="Path 272" d="M194.869-31.358c-2.561,2.709-18.353,23.3-27.27,34.976l-6.109,8.02a7.41,7.41,0,0,1-3.993,3.055c-2.857-.708-4.528-.963-4.652,3.17A41.893,41.893,0,0,1,144.323,38.5s-5.031,5.344-5.986,3.293c-.214.4-.445.823-.683,1.235a5.98,5.98,0,0,0-.387.659c-.156.379-.313.823-.478,1.227a8.679,8.679,0,0,0-.231,3.145,14.984,14.984,0,0,0,.716,3.014c1.169,3.417,3.639,6.908,7.41,7.221a4.83,4.83,0,0,0,.6,0h0a14.679,14.679,0,0,1,.609-5.319,22.231,22.231,0,0,1,5.36-9.658,25.592,25.592,0,0,1,3.417-3.046c10.333-7.657,16.665-10.564,17.645-21.111a37.527,37.527,0,0,0-.165-9.946C178.772-2.7,185.911-4.286,188.035-5.315A6.348,6.348,0,0,0,191.172-8.7L200.18-31.91C199.077-32.618,196.236-32.247,194.869-31.358ZM144.718,38.71l-.37-.214.436.132Z" transform="translate(-24.113 5.702)" fill="#7ac144"/>
    <path id="Path_273" data-name="Path 273" d="M232.214,48.78a44.61,44.61,0,0,0-7.246-16.467,11.091,11.091,0,0,0,1.647-3.6.916.916,0,0,0-1.795-.362c0,.1-2.141,9.8-18.764,10.621a.914.914,0,0,0,.049,1.828h0c9.444-.519,14.45-3.7,17.044-6.282.231-.239.453-.469.65-.708a43.761,43.761,0,0,1,6.645,15.43c2.643,12.647-1.177,24.3-11.371,34.581a15.405,15.405,0,0,1-9.246-4.421.964.964,0,0,0,.255-.14c.4-.321,9.535-7.88,10.6-22.494l8.234-5.508a.914.914,0,0,0-1.013-1.507l-7.814,5.212-7.715-3.293a.914.914,0,1,0-.716,1.647l7.188,3.1a31.607,31.607,0,0,1-9.938,21.407.931.931,0,0,0-.231.28,14.606,14.606,0,0,1-2.725-5.969.916.916,0,0,0-1.811.272,16.327,16.327,0,0,0,3.236,7.007c2.363,2.981,6.859,6.447,15.043,6.447H223.6a.915.915,0,0,0-.066-1.828h-2.157a42.416,42.416,0,0,0,10.473-18.114,36.787,36.787,0,0,0,.362-17.142Z" transform="translate(-36.057 -4.878)" fill="#241e1c"/>
    <ellipse id="Ellipse_7" data-name="Ellipse 7" cx="4.957" cy="4.841" rx="4.957" ry="4.841" transform="translate(192.765 38.443)" fill="#7ac144"/>
    <path id="Path_274" data-name="Path 274" d="M234.12,51.53a4.94,4.94,0,0,0,4.94,4.833,5.072,5.072,0,0,0,1.976-.4,47.82,47.82,0,0,0-.906-5.722c-.28-1.235-.593-2.421-.93-3.557h-.124A4.94,4.94,0,0,0,234.12,51.53Z" transform="translate(-41.355 -8.246)" fill="#7ac144"/>
    <path id="Path_275" data-name="Path 275" d="M238.832,56.089a4.833,4.833,0,1,1,0-9.658h.124c-.132-.445-.272-.881-.412-1.3a6.126,6.126,0,0,0,.288,12.243,6.3,6.3,0,0,0,2.091-.354,12.453,12.453,0,0,0-.115-1.35,5.072,5.072,0,0,1-1.976.42Z" transform="translate(-41.11 -7.972)" fill="#241e1c"/>
    <path id="Path_276" data-name="Path 276" d="M178.83,39.412l19.061,11.42s-.041.486,1.2.379,2.371-.173,2.371-.173,1.375-.3-.552-1.82-15.858-14.277-15.858-14.277-.173-.823,1.136-.725l-.65-1.853s-3.137-.247-3.927.165-3.853,5.286-3.853,5.286Z" transform="translate(-31.4 -5.704)" fill="#79c043"/>
    <path id="Path_277" data-name="Path 277" d="M179.585,41.212a2.577,2.577,0,0,0-2.47.519L177,40.364l1.762-.914,1.8,1.276Z" transform="translate(-31.265 -6.968)" fill="#79c043"/>
    <path id="Path_278" data-name="Path 278" d="M187.313,35.982s-.329-.568.7-.939l-.675-.823a6.747,6.747,0,0,0-1.021,1.062,6.2,6.2,0,0,0-.156.873l1.112.387Z" transform="translate(-32.883 -6.045)" fill="#79c043"/>
    <path id="Path_279" data-name="Path 279" d="M204.12,70.2a1.96,1.96,0,0,1-1.713-2.906l3.483-6.266a1.955,1.955,0,1,1,3.417,1.9l-3.475,6.266A1.968,1.968,0,0,1,204.12,70.2Z" transform="translate(-35.71 -10.602)" fill="#5a9328"/>
    <path id="Path_280" data-name="Path 280" d="M188.53,73.863a2.223,2.223,0,0,1-.346-4.413l11.972-1.885a2.217,2.217,0,0,1,.692,4.38L188.876,73.83a2.464,2.464,0,0,1-.346.033Z" transform="translate(-32.915 -11.93)" fill="#7ac144"/>
    <path id="Path_281" data-name="Path 281" d="M184.281,66.581c.823-.313,4.117.206,6.266,1.3,1.844.93,4.874,2.981,3.722,6.2s-5.624,1.416-7.55,3.211S182.6,75.975,183,75.448s.543-.263.173-1.647S180.609,69.965,184.281,66.581Z" transform="translate(-32.182 -11.745)" fill="#5a9328"/>
    <path id="Path_282" data-name="Path 282" d="M178.934,73.025a2.248,2.248,0,0,1-1.186-.346,2.215,2.215,0,0,1-.683-3.063,6.727,6.727,0,0,1,6.488-3.293,2.218,2.218,0,1,1-.354,4.421,2.33,2.33,0,0,0-2.388,1.276A2.223,2.223,0,0,1,178.934,73.025Z" transform="translate(-31.215 -11.709)" fill="#7ac144"/>
    <path id="Path_283" data-name="Path 283" d="M182.934,84.053a2.215,2.215,0,0,1-2.042-1.441,5.978,5.978,0,0,1,2.4-7.517,2.215,2.215,0,0,1,2.528,3.639,1.647,1.647,0,0,0-.766,2.33,2.223,2.223,0,0,1-1.309,2.849,2.141,2.141,0,0,1-.807.14Z" transform="translate(-31.864 -13.195)" fill="#7ac144"/>
    <path id="Path_284" data-name="Path 284" d="M192.134,79.541a2.346,2.346,0,0,1-.766-.231,2.215,2.215,0,0,1-.98-2.981c.947-1.861.618-2.47.362-2.9a2.216,2.216,0,0,1,3.862-2.174c1.21,2.141,1.128,4.323-.263,7.073A2.231,2.231,0,0,1,192.134,79.541Z" transform="translate(-33.588 -12.387)" fill="#7ac144"/>
    <path id="Path_285" data-name="Path 285" d="M179.791,73.355c.041-.049,0,0,0-.049h-.074l-.181.049a1.532,1.532,0,0,0-.362.189,2.47,2.47,0,0,0-.65.7,3.68,3.68,0,0,0-.379,1.062c-.041.2-.049.4-.074.609a5.706,5.706,0,0,0,0,.65c-.148-.165-.3-.329-.436-.51a4.589,4.589,0,0,1-.387-.568A4.865,4.865,0,0,1,176.7,74.1a4.94,4.94,0,0,1,0-1.647,5.767,5.767,0,0,1,.231-.881,3.5,3.5,0,0,1,.2-.445,2.3,2.3,0,0,1,.132-.231l.074-.123a1.172,1.172,0,0,1,.132-.156,1.828,1.828,0,1,1,2.363,2.783Z" transform="translate(-31.199 -12.385)" fill="#fff"/>
    <path id="Path_286" data-name="Path 286" d="M184.825,82.96V82.9h0a.189.189,0,0,0-.058.058.724.724,0,0,0-.1.156,1.712,1.712,0,0,0-.124.4,2.182,2.182,0,0,0,0,.947,3.22,3.22,0,0,0,.461,1.021,5.147,5.147,0,0,0,.371.494c.14.156.3.3.453.461a2.676,2.676,0,0,1-.667-.058c-.231-.058-.453-.074-.675-.14a4.865,4.865,0,0,1-1.359-.618,4.733,4.733,0,0,1-1.186-1.177,4.35,4.35,0,0,1-.445-.823,3.818,3.818,0,0,1-.173-.461,1.78,1.78,0,0,1-.066-.247v-.354a1.829,1.829,0,0,1,3.639.362Z" transform="translate(-32.018 -14.292)" fill="#fff"/>
    <path id="Path_287" data-name="Path 287" d="M193.8,79.136a.824.824,0,0,1-.049.2l-.049.123a1.724,1.724,0,0,1-.107.214,2.9,2.9,0,0,1-.231.379,4.011,4.011,0,0,1-.543.626,4.118,4.118,0,0,1-1.26.823,4.513,4.513,0,0,1-1.293.28,5.134,5.134,0,0,1-.618,0,4.409,4.409,0,0,1-.576-.074c.156-.124.3-.239.436-.362a4.208,4.208,0,0,0,.379-.387,2.776,2.776,0,0,0,.478-.823,1.87,1.87,0,0,0,.082-.823,1.4,1.4,0,0,0-.1-.329.462.462,0,0,0-.082-.124h-.049v.066a1.828,1.828,0,1,1,3.639.263Z" transform="translate(-33.397 -13.621)" fill="#fff"/>
    <path id="Path_288" data-name="Path 288" d="M237.17,70a2.223,2.223,0,0,0,3.293,2.923l8.695-8.439a2.218,2.218,0,1,0-3.088-3.186l-8.67,8.423A1.993,1.993,0,0,0,237.17,70Z" transform="translate(-41.828 -10.717)" fill="#7ac144"/>
    <path id="Path_289" data-name="Path 289" d="M86.04,80.408a45.813,45.813,0,0,0-6.381-5.838.484.484,0,0,1,0-.066c.65-1.713,0-3.746-1.836-5.706a18.69,18.69,0,0,0-6.966-4.43,18.74,18.74,0,0,0-8.151-1.317,6.645,6.645,0,0,0-4.43,1.853,41.087,41.087,0,0,0-5.3-.568c-1.507-2.734-6.513-4.117-12.268-3.17a18.715,18.715,0,0,0-7.715,2.939c-2.19,1.556-3.236,3.417-2.939,5.228a3.376,3.376,0,0,0,.082.4c-1.721.9-3.442,1.894-5.154,3.005a1.05,1.05,0,0,0,1.169,1.746c1.7-1.1,3.384-2.083,5.08-2.964a7.773,7.773,0,0,0,3.293,1.844h.066A19.762,19.762,0,0,1,37.413,71.8a12.426,12.426,0,0,1-2.281-.453,6.752,6.752,0,0,1-1.861-.823A2.4,2.4,0,0,1,32.135,69a1.046,1.046,0,0,1,0-.231c0-.922.733-1.984,2.108-2.964a16.723,16.723,0,0,1,6.834-2.577,20.845,20.845,0,0,1,3.244-.272,11.058,11.058,0,0,1,5.862,1.359,2.47,2.47,0,0,1,1.194,1.556h0a1.91,1.91,0,0,1,0,.486c-.14,1.037-1.2,2.24-2.956,3.293h3.384a5.352,5.352,0,0,0,1.647-3.219,37.5,37.5,0,0,1,3.919.428,5.22,5.22,0,0,0,.972,3.606c1.21.247,2.4.543,3.573.889-1.737-1.457-2.635-2.989-2.47-4.117a1.556,1.556,0,0,1,.091-.387,2.528,2.528,0,0,1,1.647-1.342,7.353,7.353,0,0,1,1.754-.412c.338,0,.683-.049,1.046-.049a17.761,17.761,0,0,1,6.167,1.243,16.788,16.788,0,0,1,6.183,3.895A4.561,4.561,0,0,1,77.84,73.2a1.811,1.811,0,0,1-.1.527,2.264,2.264,0,0,1-1.169,1.144,6.587,6.587,0,0,1-2.24.576,12.853,12.853,0,0,1-2.248,0c1.252.576,2.536,1.2,3.8,1.869a6.439,6.439,0,0,0,2.47-1.1,45.71,45.71,0,0,1,6.076,5.533,1.046,1.046,0,0,0,.823.362,1.07,1.07,0,0,0,.683-.247,1.054,1.054,0,0,0,.107-1.457Z" transform="translate(-4.33 -10.752)" fill="#ffe41d"/>
    <path id="Path_290" data-name="Path 290" d="M236.856,84.535c.725-.51,2.132-3.5,2.47-5.912.263-2.05.28-5.706-3.03-6.587s-4.331,3.845-6.9,4.43-1.219,4.117-.568,4.117.519-.3,1.482.823S231.99,85.663,236.856,84.535Z" transform="translate(-40.254 -12.705)" fill="#5a9328"/>
    <path id="Path_291" data-name="Path 291" d="M229.2,86.512a2.149,2.149,0,0,0-.379,1.177,2.207,2.207,0,0,0,2.149,2.281,6.7,6.7,0,0,0,6.389-3.5,2.223,2.223,0,0,0-3.862-2.19,2.33,2.33,0,0,1-2.4,1.235A2.215,2.215,0,0,0,229.2,86.512Z" transform="translate(-40.418 -14.707)" fill="#7ac144"/>
    <path id="Path_292" data-name="Path 292" d="M221.914,77.118a2.215,2.215,0,0,0,0,2.536,5.994,5.994,0,0,0,7.558,2.248,2.215,2.215,0,0,0-1.589-4.117,1.647,1.647,0,0,1-2.355-.675,2.223,2.223,0,0,0-3.1-.527A2.191,2.191,0,0,0,221.914,77.118Z" transform="translate(-39.128 -13.455)" fill="#7ac144"/>
    <path id="Path_293" data-name="Path 293" d="M230.763,72.1a2.34,2.34,0,0,0-.247.757,2.215,2.215,0,0,0,1.918,2.47c2.067.272,2.363.823,2.594,1.334a2.219,2.219,0,0,0,3.977-1.968c-1.1-2.207-2.939-3.368-6-3.763a2.207,2.207,0,0,0-2.24,1.169Z" transform="translate(-40.715 -12.525)" fill="#7ac144"/>
    <path id="Path_294" data-name="Path 294" d="M229.448,86.482h.058a.148.148,0,0,1-.041.066,1.041,1.041,0,0,1-.14.115,1.7,1.7,0,0,1-.362.2,2.3,2.3,0,0,1-.947.14,3.434,3.434,0,0,1-1.079-.28,5.911,5.911,0,0,1-.552-.288c-.181-.107-.354-.239-.535-.362.049.206.107.428.173.642a3.861,3.861,0,0,0,.255.642,5.13,5.13,0,0,0,.823,1.235,4.816,4.816,0,0,0,1.342,1.013,5.243,5.243,0,0,0,.823.3,4.116,4.116,0,0,0,.478.082,1.3,1.3,0,0,0,.263,0h.14a1.533,1.533,0,0,0,.214,0,1.828,1.828,0,1,0-.98-3.516Z" transform="translate(-39.894 -15.203)" fill="#fff"/>
    <path id="Path_295" data-name="Path 295" d="M224.7,76.479c.049,0,0,0,0,.049h-.074a.7.7,0,0,1-.181,0,1.934,1.934,0,0,1-.4-.115,2.313,2.313,0,0,1-.774-.56,3.408,3.408,0,0,1-.585-.955,5.394,5.394,0,0,1-.2-.585c-.049-.206-.091-.42-.132-.634-.107.189-.222.379-.321.585a5.4,5.4,0,0,0-.263.634,4.939,4.939,0,0,0-.255,1.474,4.758,4.758,0,0,0,.3,1.647,4.674,4.674,0,0,0,.4.823c.091.132.173.263.28.4a1.846,1.846,0,0,0,.173.2,1.3,1.3,0,0,0,.107.107,1.134,1.134,0,0,0,.156.123,1.828,1.828,0,1,0,1.754-3.2Z" transform="translate(-39.129 -13.015)" fill="#fff"/>
    <path id="Path_296" data-name="Path 296" d="M232.7,71.584l-.189-.066h-.132a1.276,1.276,0,0,0-.239,0,2.736,2.736,0,0,0-.445,0,3.68,3.68,0,0,0-.823.1,3.886,3.886,0,0,0-2.355,1.49,6.066,6.066,0,0,0-.338.51c-.1.173-.181.354-.263.527a5.055,5.055,0,0,1,.543-.165,4.117,4.117,0,0,1,.527-.091,2.8,2.8,0,0,1,.963.074,1.762,1.762,0,0,1,.708.379,1.341,1.341,0,0,1,.222.272.5.5,0,0,1,.058.14.14.14,0,0,1,0,.058h-.066a1.83,1.83,0,1,0,1.828-3.17Z" transform="translate(-40.26 -12.631)" fill="#fff"/>
    <path id="Path_297" data-name="Path 297" d="M139.134,85.646s-9.79,7.7-7.7,20.872c-4.117-1.112-29.015-15.644-35.487-23.054-.2-4.759,7.633-18,12.976-18.114C110.062,66.363,132.893,83.06,139.134,85.646Z" transform="translate(-16.948 -11.543)" fill="#5a9328"/>
    <path id="Path_298" data-name="Path 298" d="M131.3,106.99h-.173c-4.216-1.144-29.163-15.644-35.808-23.293a.617.617,0,0,1-.156-.4c-.148-3.466,3.582-10.877,7.665-15.232,2.19-2.338,4.191-3.54,5.953-3.582a.65.65,0,0,1,.469.181c.823.823,23.77,17.669,30,20.222a.65.65,0,0,1,.156,1.112c-.124.1-9.46,7.649-7.46,20.263a.65.65,0,0,1-.206.585A.667.667,0,0,1,131.3,106.99ZM96.46,83.022c6.167,6.875,28.06,19.9,34.046,22.371A23.054,23.054,0,0,1,133.8,90.646a24.546,24.546,0,0,1,4-4.94c-7.056-3.508-26.636-17.76-29.237-19.925-1.326.148-3.014,1.26-4.784,3.153C100.05,72.919,96.5,79.729,96.46,83.022Z" transform="translate(-16.808 -11.39)" fill="#5a9328"/>
    <path id="Path_299" data-name="Path 299" d="M162.677,112.459h-.823a15.52,15.52,0,0,0-6.587,1.309,7.113,7.113,0,0,0-1.647,1.054,77.044,77.044,0,0,0,17.85.757C170.013,113.982,166.81,112.616,162.677,112.459Z" transform="translate(-27.135 -19.864)" fill="none"/>
    <path id="Path_300" data-name="Path 300" d="M83,78.63a4.4,4.4,0,0,0,.058.873,2.684,2.684,0,0,1,1.062-.28Z" transform="translate(-14.661 -13.889)" fill="#ffe41d"/>
    <path id="Path_301" data-name="Path 301" d="M79.666,82.249c-.963-.642-1.976-1.251-3-1.836,1.112,1.647,1.647,4.751,1.013,8.4-.873,4.7-3.359,7.781-5.352,8.085a1.82,1.82,0,0,1-.667,0,2.314,2.314,0,0,1-1.284-.823c-1.367-1.474-2.182-4.85-1.424-8.917s2.734-6.949,4.545-7.83v-.642c-.56-.272-1.112-.535-1.647-.823-2.24,1.523-4.117,4.784-4.94,8.868-.9,4.841.107,9.18,2.338,11.124A16.932,16.932,0,0,1,67.966,99.5a21.827,21.827,0,0,1-2.758,2.8c-2.165-2.067-6.677-2.561-11.461-1.021a16.311,16.311,0,0,0-6.735,3.993,6.587,6.587,0,0,0-2.058,4.216,67.606,67.606,0,0,1-14.779-.329,1.046,1.046,0,1,0-.338,2.058,63.444,63.444,0,0,0,9.32.634c1.77,0,3.713-.066,5.764-.247h.519a6.1,6.1,0,0,0,4.528,2.824,12.558,12.558,0,0,0,2.347.214,17.768,17.768,0,0,0,5.442-.906c5.945-1.91,9.716-6.142,8.6-9.625h0a24.29,24.29,0,0,0,3.195-3.1,23.884,23.884,0,0,0,1.573-2.058h.173a3.77,3.77,0,0,0,.741.074c3.351,0,6.645-4.117,7.707-9.823A16.887,16.887,0,0,0,79.666,82.249ZM64.442,105.467c-.132,2.009-2.857,4.8-7.328,6.241a14.2,14.2,0,0,1-6.776.626,5.385,5.385,0,0,1-2.47-1.054,2.215,2.215,0,0,1-.708-1.021,2.05,2.05,0,0,1-.066-1,5,5,0,0,1,1.449-2.544,14.129,14.129,0,0,1,5.862-3.45,15.743,15.743,0,0,1,4.767-.823,7.41,7.41,0,0,1,4.347,1.12,2.338,2.338,0,0,1,.823,1.12,2.108,2.108,0,0,1,.1.782Z" transform="translate(-5.102 -13.753)" fill="#ffe41d"/>
    <path id="Path_302" data-name="Path 302" d="M192.69,113.936a5.92,5.92,0,0,0,2.783,1,17.678,17.678,0,0,0,13.709-5.055c1.284-1.424,1.795-2.849,1.408-3.911a.564.564,0,0,0-.091-.206,65.161,65.161,0,0,1-10.3,5.508,66.076,66.076,0,0,1-7.509,2.668Z" transform="translate(-34.037 -18.681)" fill="none"/>
    <path id="Path_303" data-name="Path 303" d="M139.623,112.216a.914.914,0,0,1-.9-.757c-2.305-13.24,7.575-21.72,7.962-22.074a.914.914,0,1,1,1.177,1.391c-.123.115-9.477,8.234-7.336,20.37a.914.914,0,0,1-.749,1.054Z" transform="translate(-24.443 -15.742)" fill="#241e1c"/>
    <path id="Path_304" data-name="Path 304" d="M30.55,75.294a.823.823,0,0,1-.247-.041C17.344,71.622,13.959,59.708,13.8,59.2a.934.934,0,1,1,1.8-.486c0,.124,3.293,11.445,15.232,14.82a.914.914,0,0,1-.247,1.795Z" transform="translate(-2.432 -10.249)" fill="#241e1c"/>
    <path id="Path_305" data-name="Path 305" d="M11.184,60.29S15.1,71.941,27.108,75.6c-8.439,7.567-3.524,19.761,4.94,20.222.321,5.344-6.587,16.237-11.939,19.176C10.081,111.47-13.8,88.251,11.184,60.29Z" transform="translate(-0.028 -10.65)" fill="#5a9328"/>
    <path id="Path_306" data-name="Path 306" d="M19.987,115.5a.618.618,0,0,1-.214,0C13.754,113.363,3.413,104.619.309,92.557A29.641,29.641,0,0,1,.457,77.2a44.493,44.493,0,0,1,10.1-17.488.65.65,0,0,1,.618-.206.667.667,0,0,1,.494.428c0,.115,3.96,11.387,15.487,14.895a.65.65,0,0,1,.239,1.112A11.527,11.527,0,0,0,23.873,88.5,9.353,9.353,0,0,0,32,95.027a.659.659,0,0,1,.618.609c.338,5.549-6.587,16.64-12.276,19.761a.618.618,0,0,1-.354.107ZM10.831,61.384C2.038,71.569-1.083,81.944,1.535,92.236c2.939,11.412,12.573,19.719,18.353,21.9,4.94-2.939,11.173-12.779,11.354-17.867a10.7,10.7,0,0,1-8.629-7.344A12.729,12.729,0,0,1,25.7,75.752C16.265,72.376,12.058,64.274,10.831,61.384Z" transform="translate(0.111 -10.509)" fill="#5a9328"/>
    <path id="Path_307" data-name="Path 307" d="M66.927,68.59c-.239,1.943,2.659,5.154,7.682,7.064a16.723,16.723,0,0,0,7.2,1.194,6.587,6.587,0,0,0,2.24-.576,49.229,49.229,0,0,0-8.8-4.94,43.267,43.267,0,0,0-8.316-2.742Z" transform="translate(-11.82 -12.116)" fill="none"/>
    <path id="Path_308" data-name="Path 308" d="M35.16,71.693a6.752,6.752,0,0,0,1.861.823,16.632,16.632,0,0,0,7.3.28c5.22-.823,8.678-3.343,8.933-5.286a42.288,42.288,0,0,0-18.1,4.183Z" transform="translate(-6.211 -11.925)" fill="none"/>
    <path id="Path_309" data-name="Path 309" d="M42.7,63.676a16.722,16.722,0,0,0-6.834,2.577c-1.375.98-2.124,2.042-2.108,2.964A45.516,45.516,0,0,1,50.943,64.8h.823A11.058,11.058,0,0,0,45.9,63.437,20.849,20.849,0,0,0,42.7,63.676Z" transform="translate(-5.963 -11.203)" fill="none"/>
    <path id="Path_310" data-name="Path 310" d="M84.2,71.121a16.788,16.788,0,0,0-6.183-3.895A17.761,17.761,0,0,0,71.846,66a7.238,7.238,0,0,0-1.046.049,7.353,7.353,0,0,0-1.77.371,45.679,45.679,0,0,1,7.517,2.544,52.415,52.415,0,0,1,9.156,5.2A4.561,4.561,0,0,0,84.2,71.121Z" transform="translate(-12.193 -11.658)" fill="none"/>
    <path id="Path_311" data-name="Path 311" d="M58.873,72.323a41.57,41.57,0,0,0-6.587-.823c-1.853,1.885-5.1,3.433-9.057,4.067a22.135,22.135,0,0,1-3.557.3,16.164,16.164,0,0,1-4.619-.618c-4.627,3.071-7.369,7.674-7.616,11.955-.362,6.892,5.936,9.839,11.486,11.058,21.449,2.141,23.383-9.74,24.017-13.668a31.049,31.049,0,0,0,.115-8.406,13.47,13.47,0,0,1-4.183-3.862Z" transform="translate(-4.844 -12.63)" fill="none"/>
    <path id="Path_312" data-name="Path 312" d="M45.212,73.565A17.7,17.7,0,0,0,51.19,71.54c-1.136.041-2.3.132-3.475.272h-.272a22.33,22.33,0,0,0-7.254,1.9,18.978,18.978,0,0,0,5.023-.148Z" transform="translate(-7.099 -12.637)" fill="none"/>
    <path id="Path_313" data-name="Path 313" d="M70.125,73.629l-.165-.049.181.148S70.133,73.662,70.125,73.629Z" transform="translate(-12.358 -12.997)" fill="none"/>
    <path id="Path_314" data-name="Path 314" d="M210.294,105.341a3.187,3.187,0,0,0-1.7-1.391,7.278,7.278,0,0,0-1.811-.461,11,11,0,0,0-1.5-.1,17.455,17.455,0,0,0-5.912,1.144,16.138,16.138,0,0,0-6.307,4.01,5.27,5.27,0,0,0-1.531,3.071,2.19,2.19,0,0,0,.132.823,2.4,2.4,0,0,0,.823,1.062,5.146,5.146,0,0,0,1.9.823,77.447,77.447,0,0,0,15.965-7.13,2.561,2.561,0,0,0,0-1.647A.486.486,0,0,0,210.294,105.341Z" transform="translate(-33.832 -18.263)" fill="#7ac144"/>
    <path id="Path_315" data-name="Path 315" d="M187.91,116.45a68.956,68.956,0,0,1-8.958,1.647v.288a4.3,4.3,0,0,1-.412,1.647c1.235-.2,2.47-.428,3.755-.708q3.5-.823,6.768-1.737A4.94,4.94,0,0,1,187.91,116.45Z" transform="translate(-31.537 -20.57)" fill="#7ac144"/>
    <path id="Path_316" data-name="Path 316" d="M162.431,112.459h-.823a15.521,15.521,0,0,0-6.587,1.309,7.114,7.114,0,0,0-1.647,1.054,2.981,2.981,0,0,0-1.144,1.935.338.338,0,0,1,0,.091,2.75,2.75,0,0,0,.757,1.82,53.914,53.914,0,0,0,12.227,1.367,55.484,55.484,0,0,0,5.764-.3,3.038,3.038,0,0,0,1.268-2.116h0a2.857,2.857,0,0,0-.939-2.034C169.768,113.982,166.565,112.616,162.431,112.459Z" transform="translate(-26.89 -19.864)" fill="#7ac144"/>
    <path id="Path_317" data-name="Path 317" d="M81.65,97.183c1.993-.3,4.479-3.384,5.352-8.085.972-5.237-.65-9.32-2.709-9.7a1.589,1.589,0,0,0-.346,0h-.066l1.054.568C85.322,86.685,84.227,92.448,81.65,97.183Z" transform="translate(-14.423 -14.023)" fill="none"/>
    <path id="Path_318" data-name="Path 318" d="M82.032,79.69c-1.811.881-3.779,3.738-4.545,7.83s.058,7.41,1.424,8.917C81.431,91.925,82.477,86.326,82.032,79.69Z" transform="translate(-13.635 -14.076)" fill="none"/>
    <path id="Path_319" data-name="Path 319" d="M58.295,108.54a14.129,14.129,0,0,0-5.862,3.45A5,5,0,0,0,51,114.542c5.558-.7,11.527-2.314,16.467-5.665a7.41,7.41,0,0,0-4.347-1.12,15.742,15.742,0,0,0-4.825.782Z" transform="translate(-9.009 -19.032)" fill="none"/>
    <path id="Path_320" data-name="Path 320" d="M54.407,118.257a14.2,14.2,0,0,0,6.776-.626c4.471-1.441,7.2-4.232,7.328-6.241A38.648,38.648,0,0,1,51.92,117.2a5.385,5.385,0,0,0,2.487,1.054Z" transform="translate(-9.171 -19.676)" fill="none"/>
    <path id="Path_321" data-name="Path 321" d="M50.156,20.66a5.689,5.689,0,0,0,2.124,2.034,5.22,5.22,0,0,0,3.153.823A37.915,37.915,0,0,0,49.86,19.87,2.593,2.593,0,0,0,50.156,20.66Z" transform="translate(-8.807 -3.51)" fill="none"/>
    <path id="Path_322" data-name="Path 322" d="M63.19,26.68a40.912,40.912,0,0,1,4.067,4.833,5.27,5.27,0,0,0-1.293-2.923,5.179,5.179,0,0,0-2.775-1.91Z" transform="translate(-11.162 -4.713)" fill="none"/>
    <path id="Path_323" data-name="Path 323" d="M54.661,18.923A5.764,5.764,0,0,0,52.01,18.1a40.261,40.261,0,0,1,4.94,3.293A5.1,5.1,0,0,0,54.661,18.923Z" transform="translate(-9.187 -3.197)" fill="none"/>
    <path id="Path_324" data-name="Path 324" d="M61.256,28.735a5.764,5.764,0,0,0,1.268,2.618,5.162,5.162,0,0,0,2.832,1.885,40.492,40.492,0,0,0-4.117-4.9,2.871,2.871,0,0,0,.016.4Z" transform="translate(-10.817 -5.006)" fill="none"/>
    <path id="Path_325" data-name="Path 325" d="M104.559,79.09l-1.219,4.174L125.958,98.4l3.475-2.091" transform="translate(-18.254 -13.97)" fill="#7ac144"/>
    <path id="Path_326" data-name="Path 326" d="M125.735,99.236a1.021,1.021,0,0,1-.585-.181L102.541,83.921a1.037,1.037,0,0,1-.42-1.161l1.219-4.174a1.046,1.046,0,0,1,2,.585l-1,3.442,21.407,14.343,2.906-1.746A1.046,1.046,0,0,1,129.728,97l-3.483,2.091A1.054,1.054,0,0,1,125.735,99.236Z" transform="translate(-18.031 -13.763)" fill="#e4536e"/>
    <path id="Path_327" data-name="Path 327" d="M23.151,110.626a1.836,1.836,0,0,1-1.276-.519c-8.744-8.464-10.333-17.291-10.119-23.268a27.607,27.607,0,0,1,2.668-11.082,1.828,1.828,0,0,1,3.211,1.7A24.248,24.248,0,0,0,15.4,87.119c-.222,7.509,2.816,14.359,9.057,20.362a1.828,1.828,0,0,1-1.268,3.137Z" transform="translate(-2.073 -13.239)" fill="#e4536e"/>
    <path id="Path_328" data-name="Path 328" d="M170.42,11.578a3.467,3.467,0,0,1,1.3,2.19L173.6,11.3a7.83,7.83,0,0,0-3.178.28Z" transform="translate(-30.103 -1.986)" fill="#5a9328"/>
    <path id="Path_329" data-name="Path 329" d="M149.667,32.226a2.849,2.849,0,0,1-2.47-.618,1.721,1.721,0,0,1-.329-.823c-.313.667-.659,1.457-1.037,2.38a4.479,4.479,0,0,0,3.12,1.153h.148a10.515,10.515,0,0,0,2.89-.453,18.111,18.111,0,0,0,1.82-.659c.214-.881.379-1.737.5-2.536a16.756,16.756,0,0,1-2.906,1.186A9.352,9.352,0,0,1,149.667,32.226Z" transform="translate(-25.759 -5.418)" fill="#ffe41d"/>
    <path id="Path_330" data-name="Path 330" d="M169.841,11.65q-.593.156-1.235.4s-.543.3-1.466.823a2.231,2.231,0,0,1,1.647.642c.618.749.436,2.248-.469,4.059l2.824-3.73a3.466,3.466,0,0,0-1.293-2.19Z" transform="translate(-29.524 -2.058)" fill="#ffe41d"/>
  </g>
  <rect id="Rectangle_9" data-name="Rectangle 9" width="195.886" height="96.341" rx="18.94" fill="#006436" opacity="0.25"/>
  <text id="Emerald" transform="translate(6.612 58.665)" fill="#fff" font-size="30" font-family="BebasNeue-Bold, Bebas Neue" font-weight="700"><tspan x="0" y="0" letter-spacing="-0.01em">Eme</tspan><tspan y="0" letter-spacing="0.01em">r</tspan><tspan y="0">ald</tspan></text>
</svg>
