<svg id="Pokefinder_Assets_NEW_FireRed_Button" data-name="Pokefinder_Assets NEW_FireRed_Button" xmlns="http://www.w3.org/2000/svg" xmlns:xlink="http://www.w3.org/1999/xlink" width="197.137" height="96.605" viewBox="0 0 197.137 96.605">
  <defs>
    <clipPath id="clip-path">
      <rect id="Rectangle_12" data-name="Rectangle 12" width="196.429" height="96.605" rx="19" fill="none"/>
    </clipPath>
  </defs>
  <rect id="Rectangle_11" data-name="Rectangle 11" width="196.429" height="96.605" rx="19" transform="translate(0.708)" fill="#ed3131"/>
  <g id="Group_15" data-name="Group 15" clip-path="url(#clip-path)">
    <path id="Path_334" data-name="Path 334" d="M125.969,60.424h0v.1l-.049.222a3.174,3.174,0,0,0,0,.494,3.294,3.294,0,0,0,.173,1.029,3.417,3.417,0,0,0,.519,1.021,4.643,4.643,0,0,0,.906.889,4.941,4.941,0,0,1-1.375-.124,4.47,4.47,0,0,1-1.391-.568,5.632,5.632,0,0,1-1.243-1.021,5.129,5.129,0,0,1-.527-.659,4.12,4.12,0,0,1-.239-.371,2.3,2.3,0,0,1-.115-.206.153.153,0,0,0-.058-.115,1.379,1.379,0,0,1-.058-.156,1.811,1.811,0,1,1,3.573-.56Z" transform="translate(-21.633 -10.381)" fill="#fff"/>
    <path id="Path_335" data-name="Path 335" d="M136.14,63.064h0a.626.626,0,0,1-.074.074l-.173.148c-.132.091-.272.173-.42.255a3.294,3.294,0,0,1-1,.329,3.334,3.334,0,0,1-1.145,0,4.257,4.257,0,0,1-1.2-.387,4.792,4.792,0,0,0,1.894,2.133,5.352,5.352,0,0,0,1.474.634,5.51,5.51,0,0,0,.823.165l.436.041h.535a1.811,1.811,0,0,0-1.153-3.392Z" transform="translate(-23.339 -11.134)" fill="#fff"/>
    <path id="Path_336" data-name="Path 336" d="M250.315,109.947s-10.6-18.888-29.089-25.162c0,0-4.652-2.2-13.618,11.931,0,0-8.67-11.222-13.281-10.333,0,0-4.356,4.512-4.265,8.439,0,0-6.2-6.216-10.333-6.513s-3.557,7.229-3.557,7.229-5.064-7.344-11.041-5.36l-1.35-6.587,21.827-19.135,5.763-36.228,4.421-5.648,6.653,4.743,7.657,7.41L222.815,46.26l11.873,15.084,8.061,10.465L248.6,86.786s1.647,14.121,2.05,15.479S250.315,109.947,250.315,109.947Z" transform="translate(-28.93 -3.989)" fill="#175164"/>
    <path id="Path_337" data-name="Path 337" d="M159.26,77.032s23.194-16.154,23.877-18.353,1.77-32.934,5.764-38.311c0,0-7.838-12.886-3.771-13.849s4.627,5.714,7.822,9.057c0,0,2.371-1.581,5.764,1.984s6.908,10.7,20.584,18.995,11.527,17.669,23.268,29.41,11.115,49.789,9.477,50.843-1.647-2.519-1.943-3.746-1.647-31.848-9.057-40.567-13.462-26.059-28.472-34.581-11.535-14.294-15.068-14.261c-6.537-.823-6.118-1.317-8.736,30.061-.231,3.532-.231,7.18-1.219,10.284-1.177,3.293-22.231,15.026-24.569,16.755Z" transform="translate(-28.132 -1.135)" fill="#e26e05"/>
    <path id="Path_338" data-name="Path 338" d="M133.12,30.183a99.97,99.97,0,0,0,11.947-15.644c.683-1.268,1.367-1,2.009-.642.214.338,2.157-.148-3.96,11.428l-.716,4.347s-8.958,3.17-9.057,2.89S133.12,30.183,133.12,30.183Z" transform="translate(-23.514 -2.403)" fill="#e26e05"/>
    <path id="Path_339" data-name="Path 339" d="M185.758,104.718a3.8,3.8,0,0,0,1.482-.922,3.014,3.014,0,0,0-.082-4.52l-9.148-7.633a3.713,3.713,0,0,0-4.94.346,3.022,3.022,0,0,0,.082,4.529l9.172,7.633a3.59,3.59,0,0,0,3.433.568Z" transform="translate(-30.398 -16.05)" fill="#e26e05"/>
    <path id="Path_340" data-name="Path 340" d="M204.707,102.938a3.038,3.038,0,0,0-1.482-5.879l-16.368,2.775a3.04,3.04,0,0,0,1.013,5.994l16.368-2.775A3.909,3.909,0,0,0,204.707,102.938Z" transform="translate(-32.559 -17.136)" fill="#e26e05"/>
    <path id="Path_341" data-name="Path 341" d="M205.437,95.22c-.823,0-3.722,1.466-5.385,3.153-1.416,1.441-3.582,4.273-1.515,6.892s5.64-.436,7.978.626,3.392-2.47,2.865-2.857-.585-.074-.683-1.5S209.891,97.213,205.437,95.22Z" transform="translate(-34.919 -16.82)" fill="#e26e05"/>
    <path id="Path_342" data-name="Path 342" d="M212.822,99.695a2.165,2.165,0,0,0,.667-3.738,6.587,6.587,0,0,0-7.032-1.079,2.167,2.167,0,0,0,1.7,3.985,2.281,2.281,0,0,1,2.61.428A2.149,2.149,0,0,0,212.822,99.695Z" transform="translate(-36.236 -16.659)" fill="#e9832c"/>
    <path id="Path_343" data-name="Path 343" d="M213.118,111.078a2.157,2.157,0,0,0,1.474-1.984,5.846,5.846,0,0,0-4.553-6.208,2.165,2.165,0,0,0-1.2,4.117,1.642,1.642,0,0,1,1.433,1.918,2.165,2.165,0,0,0,2.091,2.231A2.116,2.116,0,0,0,213.118,111.078Z" transform="translate(-36.664 -18.17)" fill="#e9832c"/>
    <path id="Path_344" data-name="Path 344" d="M203.444,109.626a2.124,2.124,0,0,0,.642-.453,2.165,2.165,0,0,0,0-3.063c-1.449-1.424-1.326-2.058-1.235-2.561a2.165,2.165,0,1,0-4.249-.823c-.453,2.355.3,4.347,2.47,6.463A2.166,2.166,0,0,0,203.444,109.626Z" transform="translate(-35.059 -17.821)" fill="#e9832c"/>
    <path id="Path_345" data-name="Path 345" d="M213.169,100.081c-.058,0-.041,0-.041-.049h0a.091.091,0,0,1,.066,0,1.235,1.235,0,0,1,.181,0,1.72,1.72,0,0,1,.4.066,2.182,2.182,0,0,1,.823.453,3.129,3.129,0,0,1,.683.823,5.492,5.492,0,0,1,.255.543c.074.189.14.4.206.6l.247-.6c.058-.214.132-.428.173-.65a4.726,4.726,0,0,0,.074-1.457,4.544,4.544,0,0,0-.486-1.556,4.642,4.642,0,0,0-.486-.749,4.113,4.113,0,0,0-.321-.346l-.189-.173-.115-.091a.634.634,0,0,0-.173-.107,1.787,1.787,0,0,0-1.309,3.293Z" transform="translate(-37.489 -17.087)" fill="#fff"/>
    <path id="Path_346" data-name="Path 346" d="M211.5,110.473v-.058h.066l.132.115a1.433,1.433,0,0,1,.247.329,2.215,2.215,0,0,1,.272.881,3.408,3.408,0,0,1-.107,1.1c-.049.189-.132.371-.2.568a3.991,3.991,0,0,1-.272.568l.593-.255c.189-.115.4-.214.585-.346a4.645,4.645,0,0,0,1.062-1,4.413,4.413,0,0,0,.733-1.457,4.2,4.2,0,0,0,.173-.873,4.385,4.385,0,0,0,0-.469v-.255a.821.821,0,0,0,0-.14.765.765,0,0,0-.049-.206,1.787,1.787,0,0,0-3.252,1.466Z" transform="translate(-37.336 -19.08)" fill="#fff"/>
    <path id="Path_347" data-name="Path 347" d="M201.762,109.83a.7.7,0,0,0,.107.165l.082.1.165.173c.115.1.222.189.338.272a3.935,3.935,0,0,0,3.4.634c.2-.049.387-.132.568-.189l.51-.255c-.181-.066-.354-.124-.519-.2a4.822,4.822,0,0,1-.461-.239,2.659,2.659,0,0,1-.708-.626,1.646,1.646,0,0,1-.321-.716,1.178,1.178,0,0,1,0-.338.7.7,0,0,1,0-.14.131.131,0,0,1,0-.058h0l.049.041a1.786,1.786,0,1,0-3.293,1.383Z" transform="translate(-35.6 -18.964)" fill="#fff"/>
    <path id="Path_348" data-name="Path 348" d="M154.26,41.852s.568,4.792-2.981,7.41a33.329,33.329,0,0,0-9.93,10.7,6.735,6.735,0,0,1-8.374,3.211c-.9-.5,3.87-5.072,4.117-10.58S143.326,40.971,154.26,41.852Z" transform="translate(-23.469 -7.378)" fill="#e26e05"/>
    <path id="Path_349" data-name="Path 349" d="M26.94,83.39S41.332,68.364,60.014,66.923c0,0,4.858-.93,9.806,14.359,0,0,10.753-8.365,14.82-6.43,0,0,2.964,5.245,1.943,8.868,0,0,7.254-4.3,11.165-3.573s1.581,7.575,1.581,7.575,6.463-5.624,11.527-2.338l2.832-5.764L97.971,56.565l3.293-35.042L98.622,15.29l-7.328,2.816L82.4,23.17,67.77,30.852,53.115,41.967l-10,7.805L34.054,62.3s-4.94,12.737-5.615,13.9S26.94,83.39,26.94,83.39Z" transform="translate(-4.759 -2.701)" fill="#175164"/>
    <path id="Path_350" data-name="Path 350" d="M117.053,74.88S99.351,54.3,99.244,52.1s6.249-31.049,3.845-37c0,0,10.383-10.1,6.826-11.972s-5.673,4.207-9.452,6.587c0,0-1.828-2.042-5.821.461s-8.983,8.283-23.7,12.729-14.96,13.66-28.678,21.77-22.231,43.638-21,45.013,2.124-1.96,2.717-3.022,9.156-29.221,18.172-35.544S60.9,30.131,76.914,25.751,91.01,15.2,94.3,16.084c6.274.823,6,.239.922,30.044-.634,3.343-1.507,6.735-1.334,9.88.3,3.368,17.1,19.308,18.838,21.473Z" transform="translate(-3.734 -0.49)" fill="#e26e05"/>
    <path id="Path_351" data-name="Path 351" d="M153.438,66.727c-.058-.231-.1-.354-.1-.354,1.729-22.552-12.046-34.655-17.291-38.426h0a3.112,3.112,0,0,0-1.564-1.079c-2.561-.453-1.1-3.475-1.1-3.475l4.792-11.066a1.992,1.992,0,0,0-.692-1.367c-2.289-2.281-1.828-.642-8.942,8.052s-10.7,8.983-14,11.634-4.825,9.156-4.364,11.527-7.468,6.381-6.587,8.6c.963,2.363,3.919,7.74,7.5,2.182,3.7-5.764,15.158-8.983,15.158-8.983l.774-.263v.041s2.124-.486,4.232,1.976h0c3.088,4.874,5.162,12.96-4.191,22.527-11.4,2.034-28.208,7.41-38.2,21.564a23.057,23.057,0,0,0-2.075,3.565c-.3.288-.6.56-.906.823A23.325,23.325,0,0,1,82.168,96.8a30.916,30.916,0,0,1-3.45,1.647l-.412.189-.445.173c-.288.123-.535.263-.823.379a5.909,5.909,0,0,0-.823.412,7.462,7.462,0,0,0-.9.428c-.272.165-.609.3-.914.469s-.6.362-.947.519c-.675.329-1.3.766-2.042,1.12l-1.087.6-1.161.56c-.766.4-1.647.725-2.47,1.07a11.041,11.041,0,0,1-1.3.461c-.445.132-.889.28-1.342.4a23.471,23.471,0,0,1-2.717.626,40.345,40.345,0,0,1-5.171.593H53.894a16.206,16.206,0,0,1-1.877-.189,13.531,13.531,0,0,1-1.342-.247,7.562,7.562,0,0,1-.823-.231,1.5,1.5,0,0,1-.733-.593,3.351,3.351,0,0,1-.5-1.449,10.309,10.309,0,0,1,.494-4.553,20.732,20.732,0,0,1,2.314-5.006A22.231,22.231,0,0,1,55.113,89.7a14.96,14.96,0,0,1,5-3.145h.066a1.2,1.2,0,0,0-.321-2.33,14.548,14.548,0,0,0-3.68.189,20.311,20.311,0,0,0-3.59.972,25.853,25.853,0,0,0-6.521,3.656A27.821,27.821,0,0,0,40.6,94.524a21.7,21.7,0,0,0-3.7,7.7,16.121,16.121,0,0,0-.42,5.08,15.109,15.109,0,0,0,1.482,5.533A16.467,16.467,0,0,0,41.4,117.5a20.922,20.922,0,0,0,4.249,3.129,29.693,29.693,0,0,0,4.314,1.91,36.953,36.953,0,0,0,4.166,1.169,54.914,54.914,0,0,0,7.9,1.054c.65.058,1.284.091,1.91.115s1.268.074,1.91.091c1.268,0,2.536.148,3.862.132s2.627.049,3.993-.049l2.042-.115c.683-.074,1.375-.173,2.075-.264a30.825,30.825,0,0,0,4.183-.889,8.514,8.514,0,0,0,1.046-.329l1.046-.379a19.376,19.376,0,0,0,2.067-.873c.683-.338,1.359-.683,2.017-1.054a22,22,0,0,0,1.951-1.276,20.666,20.666,0,0,0,1.869-1.449l.9-.774c.288-.263.576-.56.823-.823s.659-.683.972-1.029c10.226,7.41,26.059,10.127,33.4,4.24C141.516,109.278,162.372,100.633,153.438,66.727Z" transform="translate(-6.436 -1.772)" fill="#e9832c"/>
    <ellipse id="Ellipse_8" data-name="Ellipse 8" cx="20.139" cy="13.742" rx="20.139" ry="13.742" transform="matrix(0.879, -0.476, 0.476, 0.879, 108.235, 101.046)" fill="#e26e05"/>
    <path id="Path_352" data-name="Path 352" d="M160.913,117.9a31.851,31.851,0,0,0,8.406-22.972c-.436-14.59-49.846-14.952-55.05,22.692-3.532,25.565,18.937,18.254,22.626,18.2C144.034,133.944,158.509,121.314,160.913,117.9Z" transform="translate(-20.118 -15.149)" fill="#fcea92"/>
    <path id="Path_353" data-name="Path 353" d="M141.547,99.709a3.812,3.812,0,0,1-1.309,1.169,3.022,3.022,0,0,1-4.314-1.367L131.2,88.577a3.722,3.722,0,0,1,1.737-4.619,3.022,3.022,0,0,1,4.314,1.367l4.726,10.942A3.582,3.582,0,0,1,141.547,99.709Z" transform="translate(-23.131 -14.754)" fill="#e9832c"/>
    <path id="Path_354" data-name="Path 354" d="M139.493,103.919A3.038,3.038,0,0,1,140.572,98l16.517,1.647a3.038,3.038,0,1,1-.609,6.043l-16.517-1.647A2.784,2.784,0,0,1,139.493,103.919Z" transform="translate(-24.272 -17.31)" fill="#e9832c"/>
    <path id="Path_355" data-name="Path 355" d="M162.049,95.89c-.823.165-3.293,2.264-4.545,4.281-1.054,1.721-2.528,4.94.074,7.056s5.4-1.647,7.921-1.177,2.742-3.2,2.149-3.433-.585.058-1-1.309S166.832,96.8,162.049,95.89Z" transform="translate(-27.578 -16.938)" fill="#e26e05"/>
    <path id="Path_356" data-name="Path 356" d="M169.964,98.74a2.157,2.157,0,0,0-.189-3.787,6.587,6.587,0,0,0-7.089.552,2.165,2.165,0,1,0,2.528,3.466,2.264,2.264,0,0,1,2.635-.156A2.174,2.174,0,0,0,169.964,98.74Z" transform="translate(-28.535 -16.634)" fill="#e9832c"/>
    <path id="Path_357" data-name="Path 357" d="M172.783,109.876a2.166,2.166,0,0,0,1-2.264,5.838,5.838,0,0,0-5.829-5.023,2.165,2.165,0,0,0-.247,4.323c1.169.066,1.647.436,1.828,1.54a2.165,2.165,0,0,0,2.544,1.7A2.059,2.059,0,0,0,172.783,109.876Z" transform="translate(-29.271 -18.121)" fill="#e9832c"/>
    <path id="Path_358" data-name="Path 358" d="M163.1,110.642a2.051,2.051,0,0,0,.519-.576,2.165,2.165,0,0,0-.708-2.981c-1.729-1.07-1.754-1.713-1.77-2.223a2.167,2.167,0,0,0-4.331.156c.091,2.4,1.276,4.174,3.837,5.764A2.157,2.157,0,0,0,163.1,110.642Z" transform="translate(-27.699 -18.154)" fill="#e9832c"/>
    <path id="Path_359" data-name="Path 359" d="M170.355,99.156h.016a.822.822,0,0,1,.173-.058,2.123,2.123,0,0,1,.4,0,2.256,2.256,0,0,1,.889.255,3.294,3.294,0,0,1,.823.683,5.545,5.545,0,0,1,.379.469l.329.543a6.419,6.419,0,0,1,.1-.642,5.971,5.971,0,0,0,0-.675,4.4,4.4,0,0,0-1-2.981,4.577,4.577,0,0,0-.642-.618c-.123-.091-.247-.181-.4-.272l-.222-.124-.124-.058a.667.667,0,0,0-.2-.066,1.782,1.782,0,1,0-.535,3.524Z" transform="translate(-29.824 -16.886)" fill="#fff"/>
    <path id="Path_360" data-name="Path 360" d="M171.122,109.7v-.058h0a.107.107,0,0,1,.066,0,1.458,1.458,0,0,1,.165.074,1.791,1.791,0,0,1,.3.263,2.348,2.348,0,0,1,.469.823,3.484,3.484,0,0,1,.132,1.087,5.116,5.116,0,0,1-.058.6,3.006,3.006,0,0,1-.14.618l.552-.362a6.48,6.48,0,0,0,.486-.469,4.586,4.586,0,0,0,.823-1.21,4.421,4.421,0,0,0,.387-1.581,4.055,4.055,0,0,0,0-.889,4.555,4.555,0,0,0-.091-.461,1.408,1.408,0,0,0-.074-.247.726.726,0,0,0-.049-.14,1.77,1.77,0,1,0-2.931,1.976Z" transform="translate(-30.171 -18.879)" fill="#fff"/>
    <path id="Path_361" data-name="Path 361" d="M161.488,111.235a.825.825,0,0,0,.14.132.752.752,0,0,0,.107.082l.206.124a2.787,2.787,0,0,0,.379.2,3.993,3.993,0,0,0,2.24.28,4.117,4.117,0,0,0,1.227-.428,5.146,5.146,0,0,0,.5-.313c.156-.115.3-.247.445-.362a1.4,1.4,0,0,1-.552-.074,5.138,5.138,0,0,1-.51-.132,2.8,2.8,0,0,1-.823-.445,1.845,1.845,0,0,1-.478-.626,1.228,1.228,0,0,1-.091-.329.454.454,0,0,1,0-.148.157.157,0,0,1,0-.058h.058a1.787,1.787,0,0,0-2.9,2.083Z" transform="translate(-28.466 -19.158)" fill="#fff"/>
    <ellipse id="Ellipse_9" data-name="Ellipse 9" cx="20.139" cy="13.742" rx="20.139" ry="13.742" transform="translate(71.526 104.795) rotate(-36.2)" fill="#e9832c"/>
    <path id="Path_362" data-name="Path 362" d="M69.348,85.692c1.169-3.186.379-6.134-.692-6.99-1.26-1.013,0-2.4,0-2.4s-2.272.881-1.77,2.775-.5,2.149-.5,2.149l.091.255a8.154,8.154,0,0,0-.757-.56,7.887,7.887,0,0,1,.165-2.857c1.268-5.047-2.775-9.337-4.668-10.218,0,0,2.149,4.792-1.647,7.822a14.211,14.211,0,0,0-4.389,6.817c-.132.148-.255.3-.379.469-.239-.124-.823-.576-.412-2.108.5-1.894-1.762-2.783-1.762-2.783s1.26,1.391,0,2.4-2.149,4.94.123,8.711c0,5.294,3.845,9.592,8.579,9.592s8.588-4.3,8.588-9.592a10.563,10.563,0,0,0-.568-3.491Z" transform="translate(-9.07 -11.985)" fill="#c60c0c"/>
    <path id="Path_363" data-name="Path 363" d="M56.313,92.05c-.823-2.165-.255-4.158.469-4.743.823-.683,0-1.647,0-1.647s1.54.593,1.2,1.877S58.322,89,58.322,89l-.058.173a5.45,5.45,0,0,1,.51-.379,5.368,5.368,0,0,0-.123-1.935c-.823-3.417,1.885-6.332,3.17-6.924,0,0-1.457,3.293,1.112,5.3a9.609,9.609,0,0,1,2.972,4.636l.255.313c.156-.082.552-.387.28-1.424-.346-1.284,1.194-1.886,1.194-1.886s-.823.939,0,1.647,1.457,3.335-.082,5.9c0,3.59-2.6,6.5-5.821,6.5s-5.813-2.915-5.813-6.5A7.1,7.1,0,0,1,56.313,92.05Z" transform="translate(-9.875 -14.119)" fill="#ffe41d"/>
  </g>
  <rect id="Rectangle_13" data-name="Rectangle 13" width="196.429" height="96.605" rx="19" transform="translate(0.708)" fill="#ed3131" opacity="0.25"/>
  <text id="FireRed" transform="translate(7.32 59.797)" fill="#fff" font-size="29" font-family="BebasNeue-Bold, Bebas Neue" font-weight="700"><tspan x="0" y="0">F</tspan><tspan y="0" letter-spacing="-0.02em">i</tspan><tspan y="0" letter-spacing="-0.01em">re</tspan><tspan y="0" font-family="BebasNeue-Book, Bebas Neue" font-weight="400" letter-spacing="-0.01em">Re</tspan><tspan y="0" font-family="BebasNeue-Book, Bebas Neue" font-weight="400">d</tspan></text>
</svg>
