<svg id="Pokefinder_Assets_NEW_LeafGreen_Button" data-name="Pokefinder_Assets NEW_LeafGreen_Button" xmlns="http://www.w3.org/2000/svg" xmlns:xlink="http://www.w3.org/1999/xlink" width="196.429" height="96.605" viewBox="0 0 196.429 96.605">
  <defs>
    <clipPath id="clip-path">
      <rect id="Rectangle_16" data-name="Rectangle 16" width="196.429" height="96.605" rx="19" fill="none"/>
    </clipPath>
  </defs>
  <rect id="Rectangle_15" data-name="Rectangle 15" width="196.429" height="96.605" rx="19" fill="#79c043"/>
  <g id="Group_17" data-name="Group 17" clip-path="url(#clip-path)">
    <path id="Path_375" data-name="Path 375" d="M221.054,79.373a14.49,14.49,0,0,1-2.058-.14,15.38,15.38,0,0,1-12.441-10.317,1.235,1.235,0,0,1,2.322-.823,12.853,12.853,0,0,0,22.807,3.293c5.385-7.567,4.051-20.584-3.656-35.824-5.475-10.877-12.606-16.912-21.119-18.015C187.633,15.077,166.9,38.205,166.7,38.436a1.239,1.239,0,0,1-1.853-1.647c.881-1,21.811-24.347,42.378-21.7,9.419,1.21,17.167,7.7,23.054,19.283,11.14,21.976,6.957,33.478,3.475,38.369A15.537,15.537,0,0,1,221.054,79.373Z" transform="translate(-29.063 -2.628)" fill="#349946"/>
    <path id="Path_376" data-name="Path 376" d="M31.27,78.21c-11.445,0-20.633-5.039-25.417-14.491C-2.233,47.7,4.14,21.216,31.978,1.472,46.7-8.968,59.264-12.088,69.317-7.782,85.381-.883,88.938,22.172,89.078,23.16a1.248,1.248,0,1,1-2.47.354c0-.222-3.508-22.708-18.3-29.032-9.172-3.936-20.913-.906-34.91,9.008C6.709,22.427.459,47.556,8.059,62.6c6.175,12.21,20.617,16.27,37.685,10.621a1.243,1.243,0,0,1,.823,2.347,48.85,48.85,0,0,1-15.3,2.643Z" transform="translate(-0.459 1.706)" fill="#349946"/>
    <path id="Path_377" data-name="Path 377" d="M139.629,51.391s-8.654-27.8,26.6-44.676c0,0,25.4-5.591,26.99,22.98,0,0-24.528-1.046-39.241,18.641C153.98,48.336,146.059,54.33,139.629,51.391Z" transform="translate(-24.498 -1.108)" fill="#933"/>
    <path id="Path_378" data-name="Path 378" d="M164.383,47.011s8.654-27.8-26.595-44.676c0,0-25.409-5.591-27,22.972,0,0,24.536-1.037,39.241,18.641C150.031,43.972,157.952,49.95,164.383,47.011Z" transform="translate(-19.57 -0.334)" fill="#933"/>
    <path id="Path_379" data-name="Path 379" d="M145.5,24.282s.642-11.231-1.927-14.442c0,0,7.41,1.927,8.991,6.093l3.853-8.983,5.459,8.341a7.023,7.023,0,0,1,7.41-6.093s-4.817,12.515-.642,14.121C168.625,23.3,158.02,33.256,145.5,24.282Z" transform="translate(-25.36 -1.228)" fill="#fecc33"/>
    <path id="Path_380" data-name="Path 380" d="M102.979,90.47,86.15,100.087l11.058,19.242s2.89,12.746,53.864,4.808-18.517-30.547-18.517-30.547Z" transform="translate(-15.218 -15.981)" fill="#007572"/>
    <path id="Path_381" data-name="Path 381" d="M120.55,64.179c4.528-18.649,105.711,1.457,58.22,48.636" transform="translate(-21.294 -10.117)" fill="#47c1c3"/>
    <path id="Path_382" data-name="Path 382" d="M174.687,86.39c18.279,1.795,27.418,15.981,1.927,42.321a28.4,28.4,0,0,1-20.205-.239C145.828,124.141,142.46,96.007,174.687,86.39Z" transform="translate(-26.317 -15.26)" fill="#00989a"/>
    <path id="Path_383" data-name="Path 383" d="M151.911,86.08s10.308,14.195-7.155,41.366c0,0-10.523,6.5-26.3.247C118.458,127.693,112.777,91.613,151.911,86.08Z" transform="translate(-20.874 -15.205)" fill="#47c1c3"/>
    <path id="Path_384" data-name="Path 384" d="M72.448,86.08s-9.567,14.195,6.636,41.366c0,0,9.765,6.5,24.413.247C103.5,127.693,108.767,91.613,72.448,86.08Z" transform="translate(-12.302 -15.205)" fill="#47c1c3"/>
    <path id="Path_385" data-name="Path 385" d="M153.693,65.09a24.757,24.757,0,0,0,1.441,2.964l7.41.906-4.94,2.832a38.493,38.493,0,0,0,3.458,3.927l5.665-1.35-2.272,4.4a48.046,48.046,0,0,0,4.537,3.293l3.442-3.384.609,5.624a37.87,37.87,0,0,0,5.162,1.976l1.194-4.627,2.816,5.6a37.683,37.683,0,0,0,3.9.519l.28-4.067,2.7,4.166a28.949,28.949,0,0,0,4.117-.329l-1.754-4.389,4.281,3.812a6.892,6.892,0,0,0,3.623-2.132L157.447,59C154.417,58.742,152.375,61.78,153.693,65.09Z" transform="translate(-27.076 -10.418)" fill="#22772e"/>
    <path id="Path_386" data-name="Path 386" d="M200.742,79.488l-5.665-2.248,5.072-.436a26.341,26.341,0,0,0-1.457-3.763l-5.409-.634,3.862-2.289a36.06,36.06,0,0,0-2.025-3.038h-6.826l3.952-3.442a37.505,37.505,0,0,0-3.911-3.582l-5.821,2.182,1.647-5.072a51.817,51.817,0,0,0-4.8-2.528l-3.2,4.421-1.482-6.274a38.7,38.7,0,0,0-4.891-1.276l-.329,6.258L164.934,51a19.108,19.108,0,0,0-2.709.156c-3.384.626-5.278,3.705-3.911,6.389h-.058l41.95,25.862.1-.132a6.052,6.052,0,0,0,.436-3.787Z" transform="translate(-27.886 -9.008)" fill="#33a036"/>
    <path id="Path_387" data-name="Path 387" d="M158.243,74.995a24.567,24.567,0,0,0,3.121.543l5.7-4.528-1.326,4.751a43.711,43.711,0,0,0,5.146-.338l2.882-4.487,1.6,3.746c1.762-.371,3.565-.823,5.4-1.4l-.074-4.018,4.421,2.421a44.867,44.867,0,0,0,4.94-2.47l-2.47-3.129,5.9.93c1.087-.766,2.091-1.556,3.022-2.355l-2.775-2.223,4.808.288a29.272,29.272,0,0,0,2.6-2.906l-4.323-1.037,5.624-.947a5.26,5.26,0,0,0,.93-3.516L156.44,69.437C154.209,71.347,155.032,74.212,158.243,74.995Z" transform="translate(-27.412 -9.595)" fill="#22772e"/>
    <path id="Path_388" data-name="Path 388" d="M200.547,50.9,195.1,53.57l3.137-3.623a26.785,26.785,0,0,0-3.689-.922l-4.117,3.335.98-3.755c-1.128-.1-2.314-.156-3.54-.165l-4.594,4.578.222-4.389a45.063,45.063,0,0,0-5.228.823l-2.4,5-2.519-3.639q-2.643.889-5.055,1.943l.98,4.38L163.8,54.969a43.275,43.275,0,0,0-4.224,2.643l4.24,3.368-7.863-.379a20.006,20.006,0,0,0-1.721,1.894c-1.853,2.585-.939,5.409,1.9,5.846h-.041l46.932-15.117a.742.742,0,0,0,0-.132A5.074,5.074,0,0,0,200.547,50.9Z" transform="translate(-27.073 -8.556)" fill="#33a036"/>
    <path id="Path_389" data-name="Path 389" d="M143.352,34.03S136.856,5.624,97.9,8.778c0,0-24.775,7.929-11.791,33.428,0,0,20.683-13.231,43.292-3.606C129.4,38.6,139.269,39.8,143.352,34.03Z" transform="translate(-14.546 -1.507)" fill="#cb3332"/>
    <path id="Path_390" data-name="Path 390" d="M161.437,68.05s7.723,5.418,8.522-.107,4.611-18.188,3.293-19.761a20.773,20.773,0,0,0-19.761-5.294C142.722,45.613,154.628,67.391,161.437,68.05Z" transform="translate(-26.349 -7.458)" fill="#963"/>
    <path id="Path_391" data-name="Path 391" d="M94.789,27.925s-11.906-6.859-30.464-5.418c0,0-1.441,20.749,8.662,23.993C72.962,46.5,82.521,47.76,94.789,27.925Z" transform="translate(-11.35 -3.941)" fill="#47c1c3"/>
    <path id="Path_392" data-name="Path 392" d="M149.3,38.114S162.276,12.055,199.41,24.3c0,0,22.231,13.536,3.6,35.265,0,0-16.994-17.719-41.226-13.684C161.782,45.837,151.91,44.684,149.3,38.114Z" transform="translate(-26.372 -3.714)" fill="#cb3332"/>
    <path id="Path_393" data-name="Path 393" d="M138.49,28.766S151.236,21.421,171.136,23c0,0,1.54,22.231-9.271,25.689C161.865,48.658,151.623,50.008,138.49,28.766Z" transform="translate(-24.463 -4.024)" fill="#47c1c3"/>
    <path id="Path_394" data-name="Path 394" d="M172.823,83.46,172,84C172.519,83.666,172.823,83.46,172.823,83.46Z" transform="translate(-30.382 -14.742)" fill="none"/>
    <path id="Path_395" data-name="Path 395" d="M125.358,86.56a45.466,45.466,0,0,0-31.741,3.787s-8.481-8.118-19.3-3.787A15.586,15.586,0,0,1,60.7,83.67c6.192,5.228,22.791,13.89,46.265,13.89,23.293,0,41.292-10.885,45.359-13.528C149.664,85.654,140.508,90.158,125.358,86.56Z" transform="translate(-10.722 -14.779)" fill="#00989a"/>
    <path id="Path_396" data-name="Path 396" d="M124.606,28.744c-.041.189-.091.379-.14.576a19.259,19.259,0,0,1-1.07,2.421l-7.8.379,5.237,3.532a34.3,34.3,0,0,1-3.293,3.565l-6.06-1.976L113.87,42.3a45.283,45.283,0,0,1-4.281,2.906l-3.647-4.034-.708,6.159a33.075,33.075,0,0,1-4.841,1.507l-1.21-5.278-3.03,5.9a32.042,32.042,0,0,1-3.508.173L92.38,45.1l-2.906,4.364a26.637,26.637,0,0,1-3.895-.692l1.91-4.586-4.446,3.738a6.389,6.389,0,0,1-3.079-2.355l-.074-.156a7.3,7.3,0,0,1-.231-4.24l5.154-1.729-4.553-.766a26.213,26.213,0,0,1,1.556-3.755l4.775-.173L83.233,32.4a33.093,33.093,0,0,1,2.174-3.1l6.068.469L89.227,27.55c-15.158,4.6-28.842,15.924-36.747,34.128A21.177,21.177,0,0,0,57.346,71.9h0l.165.189.2.231a16.91,16.91,0,0,0,1.531,1.441,15.586,15.586,0,0,0,13.618,2.89c10.819-4.331,19.3,3.787,19.3,3.787A45.466,45.466,0,0,1,123.9,76.655c15.15,3.6,24.306-.906,26.965-2.528l.823-.535c1.087-.725,6.134-5.953,6.5-11.906C150.888,45.013,138.538,34.013,124.606,28.744Z" transform="translate(-9.27 -4.866)" fill="#47c1c3"/>
    <path id="Path_397" data-name="Path 397" d="M122.19,23.539l6.159-3.442c1.548-2.47-.165-5.838-3.59-6.414a23.44,23.44,0,0,0-3.219-.313l-4.117,5.953-.239-5.764a36.279,36.279,0,0,0-4.94.947l-1.35,5.6-2.775-4.249a42.507,42.507,0,0,0-4.775,2.231l1.375,4.734-5.1-2.4A33.857,33.857,0,0,0,95.62,23.86l1.21,1.2A55.058,55.058,0,0,1,122.19,23.539Z" transform="translate(-16.89 -2.362)" fill="#349946"/>
    <path id="Path_398" data-name="Path 398" d="M91.185,28.821a33.081,33.081,0,0,0-2.174,3.1l3.359,2.355-4.775.173A26.218,26.218,0,0,0,86.039,38.2l4.553.766L85.4,40.678a7.3,7.3,0,0,0,.231,4.24l34.713-19.374a55.058,55.058,0,0,0-25.343,1.523l2.248,2.223Z" transform="translate(-15.049 -4.368)" fill="#349946"/>
    <path id="Path_399" data-name="Path 399" d="M137.921,27.675c.6-3.046-1.161-5.928-3.9-6.126V21.5l-6.159,3.442a55.436,55.436,0,0,1,10.061,2.734Z" transform="translate(-22.585 -3.798)" fill="#41b548"/>
    <path id="Path_400" data-name="Path 400" d="M85.73,45.087l.074.156A6.389,6.389,0,0,0,88.883,47.6l4.479-3.738-1.877,4.619a26.635,26.635,0,0,0,3.895.692l2.906-4.364.263,4.528a32.047,32.047,0,0,0,3.508-.173l3-5.928,1.21,5.2a33.074,33.074,0,0,0,4.841-1.507l.708-6.159,3.647,4.034a45.286,45.286,0,0,0,4.306-2.832l-2.388-5.064,6.06,1.976a34.3,34.3,0,0,0,3.293-3.565L121.5,31.789l7.8-.379a19.259,19.259,0,0,0,1.07-2.421c.049-.2.1-.387.14-.576a55.436,55.436,0,0,0-10.037-2.734Z" transform="translate(-15.143 -4.536)" fill="#41b548"/>
    <ellipse id="Ellipse_10" data-name="Ellipse 10" cx="6.521" cy="3.977" rx="6.521" ry="3.977" transform="matrix(0.955, -0.298, 0.298, 0.955, 37.38, 73.966)" fill="#349946"/>
    <ellipse id="Ellipse_11" data-name="Ellipse 11" cx="3.977" cy="6.521" rx="3.977" ry="6.521" transform="translate(171.73 54.856) rotate(-14.44)" fill="#349946"/>
  </g>
  <rect id="Rectangle_17" data-name="Rectangle 17" width="196.429" height="96.605" rx="19" fill="#79c043" opacity="0.25"/>
  <text id="leafGreen" transform="translate(6.71 53.797)" fill="#fff" font-size="29" font-family="BebasNeue-Bold, Bebas Neue" font-weight="700"><tspan x="0" y="0">leaf</tspan><tspan y="0" font-family="BebasNeue-Book, Bebas Neue" font-weight="400" letter-spacing="-0.01em">Gree</tspan><tspan y="0" font-family="BebasNeue-Book, Bebas Neue" font-weight="400">n</tspan></text>
</svg>
