<svg id="Pokefinder_Assets_NEW_Ruby_Button" data-name="Pokefinder_Assets NEW_Ruby_Button" xmlns="http://www.w3.org/2000/svg" xmlns:xlink="http://www.w3.org/1999/xlink" width="197.606" height="97.19" viewBox="0 0 197.606 97.19">
  <defs>
    <clipPath id="clip-path">
      <rect id="Rectangle_24" data-name="Rectangle 24" width="197.606" height="97.19" rx="19.11" fill="none"/>
    </clipPath>
  </defs>
  <rect id="Rectangle_23" data-name="Rectangle 23" width="197.606" height="97.19" rx="19.11" fill="#5b1515"/>
  <g id="Group_21" data-name="Group 21" clip-path="url(#clip-path)">
    <path id="Path_503" data-name="Path 503" d="M168.57,122.153c.272-.634.6-1.367.939-2.182a9.881,9.881,0,0,1-3.68.716c-6.258,0-11.354-5.945-11.354-13.256s5.1-13.256,11.354-13.256a10.012,10.012,0,0,1,5.212,1.507,16.212,16.212,0,0,0-4.4-5.764A17.291,17.291,0,0,0,155.569,86a18.3,18.3,0,0,0-13.577,5.764,12.951,12.951,0,0,0-3.293,10.35,10.7,10.7,0,0,0,.906,3.787,37.41,37.41,0,0,1,1.35,4.166c2.6,9.88,3.475,16.467,2.47,18.419a1.029,1.029,0,0,0-.222.889c.14.453.593.609,1.219.823l.206.074c1.145.494,4.636,1.647,11.725,1.647a91.926,91.926,0,0,0,12.589-.972c1.26-.1,1.647-.675,1.795-1a1.177,1.177,0,0,0-.255-1.243,3.841,3.841,0,0,0-.478-.387c-.914-.675-2.824-2.083-2.355-3.993A18.116,18.116,0,0,1,168.57,122.153Z" transform="translate(-24.482 -15.191)" fill="#933"/>
    <path id="Path_504" data-name="Path 504" d="M157.83,109.161c0,7.311,5.1,13.256,11.354,13.256a9.881,9.881,0,0,0,3.68-.716c.486-1.161,1-2.47,1.5-3.96a7.781,7.781,0,0,1-5.179,2.067c-4.817.058-8.744-4.751-8.744-10.646s3.927-10.646,8.744-10.646a8.234,8.234,0,0,1,6.636,3.713c-.058-.255-.107-.51-.165-.766a15.431,15.431,0,0,0-1.219-4.026,10.012,10.012,0,0,0-5.261-1.507C162.91,95.93,157.83,101.875,157.83,109.161Z" transform="translate(-27.879 -16.945)" fill="#1a1312"/>
    <path id="Path_505" data-name="Path 505" d="M176.38,102.813a8.234,8.234,0,0,0-6.636-3.713c-4.817,0-8.744,4.775-8.744,10.621s3.927,10.7,8.744,10.7a7.781,7.781,0,0,0,5.179-2.067C176.364,113.978,177.467,108.462,176.38,102.813Z" transform="translate(-28.439 -17.505)" fill="#933"/>
    <ellipse id="Ellipse_29" data-name="Ellipse 29" cx="11.255" cy="11.815" rx="11.255" ry="11.815" transform="translate(158.387 47.927) rotate(-13.5)" fill="#cb3332"/>
    <path id="Path_506" data-name="Path 506" d="M206.692,78.7a11.527,11.527,0,0,1-6.3-1.9,12.523,12.523,0,0,1-5.385-7.674h0a12.556,12.556,0,0,1,1.309-9.362,11.469,11.469,0,0,1,7.27-5.475c6.315-1.515,12.754,2.635,14.343,9.263s-2.264,13.24-8.579,14.755a11.24,11.24,0,0,1-2.659.4Zm-.478-23.581a9.88,9.88,0,0,0-2.379.288,10.391,10.391,0,0,0-6.587,4.94,11.527,11.527,0,0,0-1.2,8.472h0a11.527,11.527,0,0,0,4.94,7.032,10.366,10.366,0,0,0,8.127,1.441,11,11,0,0,0,7.789-13.47,11.189,11.189,0,0,0-10.687-8.744Z" transform="translate(-34.379 -9.533)" fill="#cb3332"/>
    <path id="Path_507" data-name="Path 507" d="M206.871,83.668a.379.379,0,0,1-.181-.049.4.4,0,0,1-.2-.231l-3.927-11.832a.4.4,0,0,1,.255-.51L213.3,67.563a.4.4,0,0,1,.3,0,.4.4,0,0,1,.206.231L217.74,79.65a.4.4,0,0,1-.255.51l-10.448,3.483A.338.338,0,0,1,206.871,83.668Zm-3.417-11.98,3.672,11.05,9.724-3.228-3.672-11.074Z" transform="translate(-35.777 -11.929)" fill="#1a1312"/>
    <path id="Path_508" data-name="Path 508" d="M205.089,99.748c-.749-2.2-2.618-7.871-2.849-10.473a5.187,5.187,0,0,0,.148-4.858s4.578-3.6,8.036-3.293l1.6-.535c2.6-2.305,8.423-2.149,8.423-2.149a5.171,5.171,0,0,0,3.005,3.755c1.729,2.791,4.273,11,4.273,11h-.058c1.392,4.4-2.412,9.592-8.547,11.634s-12.35.132-13.849-4.29C205.2,100.308,205.146,100,205.089,99.748Z" transform="translate(-35.724 -13.855)" fill="#cb3332"/>
    <path id="Path_509" data-name="Path 509" d="M214.127,105.981c-4.43,0-8.176-2-9.3-5.385a6.243,6.243,0,0,1-.206-.823c-.823-2.314-2.635-7.912-2.857-10.539a.4.4,0,0,1,.066-.255,4.784,4.784,0,0,0,.132-4.487.4.4,0,0,1,.115-.478c.189-.148,4.66-3.648,8.234-3.4l1.449-.486c2.709-2.322,8.39-2.207,8.629-2.2a.4.4,0,0,1,.379.313,4.817,4.817,0,0,0,2.766,3.508.4.4,0,0,1,.214.173c1.729,2.8,4.2,10.753,4.306,11.091a.478.478,0,0,1,0,.189c1.243,4.545-2.676,9.88-8.876,11.9a16.088,16.088,0,0,1-5.047.881ZM202.6,89.316c.272,2.6,2.058,8.02,2.824,10.251v.049a6.13,6.13,0,0,0,.189.725c1.392,4.207,7.41,6.019,13.33,4.043s9.617-6.957,8.291-11.132a.469.469,0,0,1,0-.181c-.412-1.309-2.561-8.028-4.117-10.572a5.591,5.591,0,0,1-3.046-3.771c-1.21,0-5.722.181-7.838,2.058a.487.487,0,0,1-.14.082l-1.606.527a.52.52,0,0,1-.156,0c-2.824-.239-6.537,2.322-7.509,3.038a5.574,5.574,0,0,1-.255,4.841Z" transform="translate(-35.639 -13.765)" fill="#cb3332"/>
    <ellipse id="Ellipse_30" data-name="Ellipse 30" cx="9.658" cy="8.67" rx="9.658" ry="8.67" transform="translate(164.916 65.836) rotate(-18.38)" fill="#1a1312"/>
    <path id="Path_510" data-name="Path 510" d="M230.144,96.285a3.508,3.508,0,0,1-.51-2.33.1.1,0,0,1,0-.066.057.057,0,0,1,.049,0l6.258,1.342a.082.082,0,0,1,0,.107c0,.1,0,.165-2.52.9l-2.47.692C230.687,97.018,230.539,96.828,230.144,96.285Z" transform="translate(-40.557 -16.583)" fill="#fff"/>
    <path id="Path_511" data-name="Path 511" d="M229.649,93.5a.115.115,0,0,1,0-.074,3.442,3.442,0,0,1,1.391-1.935c.576-.346.782-.453,1.079-.206,0,0,1,.823,1.96,1.647,2,1.647,1.984,1.729,1.968,1.828s-.049.082-.082.074l-6.274-1.252A.23.23,0,0,1,229.649,93.5Z" transform="translate(-40.564 -16.1)" fill="#ededed"/>
    <path id="Path_512" data-name="Path 512" d="M212.318,106.734h-.066a.823.823,0,0,1-.733-.865l.56-6.752a.823.823,0,0,1,.206-.478l3.746-4.117a.823.823,0,0,1,.774-.247l5.393,1.252a.905.905,0,0,1,.412.239l3.746,4.043a.819.819,0,0,1-1.177,1.136L221.6,97.084l-4.693-1.1L213.66,99.57l-.543,6.48A.823.823,0,0,1,212.318,106.734Z" transform="translate(-37.363 -16.65)" fill="#1a1312"/>
    <path id="Path_513" data-name="Path 513" d="M220.323,104.168a.823.823,0,0,1-.766-.552L216.8,95.325a.823.823,0,0,1,1.523-.51l2.758,8.316a.823.823,0,0,1-.511,1.013.692.692,0,0,1-.247.025Z" transform="translate(-38.295 -16.678)" fill="#1a1312"/>
    <path id="Path_514" data-name="Path 514" d="M217.946,107.59a4.742,4.742,0,0,1,2.47-3.112.136.136,0,0,1,.189.091l4.446,13.6a.148.148,0,0,1-.091.181c-.14.049-.239.082-3.623-4.2-1.647-2.058-3.252-4.117-3.293-4.207C217.551,109.327,217.642,108.866,217.946,107.59Z" transform="translate(-38.454 -18.453)" fill="#fff"/>
    <path id="Path_515" data-name="Path 515" d="M221,104.52a.123.123,0,0,1,.091-.066,4.718,4.718,0,0,1,3.845,1.013c1,.823,1.35,1.153,1.326,1.943,0,.066-.041,2.717-.115,5.344-.156,5.451-.255,5.484-.4,5.533a.148.148,0,0,1-.181-.091l-4.578-13.561A.14.14,0,0,1,221,104.52Z" transform="translate(-39.034 -18.438)" fill="#ededed"/>
    <path id="Path_516" data-name="Path 516" d="M208.628,107.024a4.035,4.035,0,0,1,2.931-1.7.14.14,0,0,1,.1.041.173.173,0,0,1,0,.091l-.725,12.219a.107.107,0,0,1-.123.107c-.132,0-.222,0-1.573-4.471-.659-2.149-1.293-4.323-1.309-4.38C207.764,108.276,207.978,107.938,208.628,107.024Z" transform="translate(-36.719 -18.604)" fill="#fff"/>
    <path id="Path_517" data-name="Path 517" d="M212.15,105.358a.123.123,0,0,1,.091,0,4.117,4.117,0,0,1,2.742,2.017c.543.972.716,1.334.445,1.96,0,.058-.881,2.149-1.762,4.216-1.828,4.29-1.918,4.281-2.05,4.273a.124.124,0,0,1-.115-.123l.6-12.227A.091.091,0,0,1,212.15,105.358Z" transform="translate(-37.359 -18.609)" fill="#ededed"/>
    <path id="Path_518" data-name="Path 518" d="M226.919,103.585a4.034,4.034,0,0,1,.93-3.293.124.124,0,0,1,.181,0l8,9.312a.107.107,0,0,1,0,.165c-.1.091-.165.148-4.24-2.116-1.968-1.1-3.936-2.215-3.985-2.248C227.174,105.083,227.091,104.688,226.919,103.585Z" transform="translate(-40.073 -17.708)" fill="#fff"/>
    <path id="Path_519" data-name="Path 519" d="M227.994,100.245a.14.14,0,0,1,.049-.082,4.034,4.034,0,0,1,3.368-.461c1.07.321,1.449.461,1.647,1.1,0,.058.823,2.165,1.647,4.257,1.647,4.356,1.6,4.413,1.507,4.5a.115.115,0,0,1-.173,0l-8.069-9.2A.156.156,0,0,1,227.994,100.245Z" transform="translate(-40.268 -17.58)" fill="#ededed"/>
    <ellipse id="Ellipse_31" data-name="Ellipse 31" cx="8.765" cy="7.775" rx="8.765" ry="7.775" transform="matrix(0.948, -0.319, 0.319, 0.948, 166.154, 64.546)" fill="#cb3332"/>
    <path id="Path_520" data-name="Path 520" d="M225.1,73v.091A.37.37,0,0,0,225.1,73Z" transform="translate(-39.762 -12.895)" fill="#8d7d73"/>
    <path id="Path_521" data-name="Path 521" d="M130.813,11.57c4.479,16.714,1.161,34.622.14,36.178s-4.117,2.668-4.981,2.766-.206-17.291-.708-18.937A27.052,27.052,0,0,0,120.62,27.7" transform="translate(-21.306 -2.044)" fill="#933"/>
    <path id="Path_522" data-name="Path 522" d="M125.859,50.918a.618.618,0,0,1-.4-.156c-.494-.445-.6-2.289-.609-10.934,0-3.433,0-7.32-.181-8.135a27.714,27.714,0,0,0-4.454-3.664.536.536,0,1,1,.609-.881c.823.552,3.985,2.849,4.775,4.018a.462.462,0,0,1,.074.14c.231.733.247,3.722.247,8.522,0,3.689,0,8.621.255,9.946,1.07-.263,3.433-1.235,4.224-2.47.37-.568,1.49-5.023,1.91-12.153A76.367,76.367,0,0,0,130.2,11.544a.535.535,0,1,1,1.029-.272c4.553,16.994,1.194,34.894.066,36.615s-4.512,2.906-5.368,3Z" transform="translate(-21.193 -1.911)" fill="#933"/>
    <path id="Path_523" data-name="Path 523" d="M81.361,70.8c-.041-.074-3.993-7.624-4.808-12.614a34.911,34.911,0,0,1,.231-10.959.543.543,0,0,0-.823-.576c-.263.165-6.645,4.076-9.592,9.7a.971.971,0,0,0-.058.165c-.049.3-1.21,7.517,4.059,20.708a.626.626,0,0,0,.222.263,3.054,3.054,0,0,0,1.441.3c1.466,0,4.034-.7,7.682-4.265a.222.222,0,0,0,.058-.066L81.3,71.369a.527.527,0,0,0,.058-.568Z" transform="translate(-11.688 -8.225)" fill="#933"/>
    <path id="Path_524" data-name="Path 524" d="M74.114,70.806c-.041-.074-4-7.624-4.808-12.614a35.065,35.065,0,0,1,.222-10.959.535.535,0,0,0-.206-.552.552.552,0,0,0-.593,0c-.272.165-6.645,4.076-9.6,9.7a.544.544,0,0,0-.049.165c-.049.3-1.219,7.517,4.059,20.708a.576.576,0,0,0,.222.263,3.022,3.022,0,0,0,1.441.3c1.466,0,4.026-.7,7.682-4.265l.058-.066L74.073,71.4A.56.56,0,0,0,74.114,70.806Z" transform="translate(-10.41 -8.231)" fill="#cb3332"/>
    <path id="Path_525" data-name="Path 525" d="M66.264,70.806c0-.074-3.993-7.624-4.808-12.614a35.065,35.065,0,0,1,.222-10.959.535.535,0,0,0-.206-.552.552.552,0,0,0-.593,0c-.263.165-6.645,4.076-9.592,9.7a.561.561,0,0,0-.058.165c-.049.3-1.21,7.517,4.059,20.708a.626.626,0,0,0,.222.263,3.055,3.055,0,0,0,1.441.3c1.466,0,4.034-.7,7.682-4.265a.222.222,0,0,0,.058-.066L66.223,71.4A.527.527,0,0,0,66.264,70.806Z" transform="translate(-9.024 -8.231)" fill="#933"/>
    <path id="Path_526" data-name="Path 526" d="M57.6,70.806c0-.074-3.993-7.624-4.8-12.614a35.065,35.065,0,0,1,.222-10.959.519.519,0,0,0-.214-.552.535.535,0,0,0-.585,0c-.272.165-6.645,4.076-9.6,9.7a.543.543,0,0,0-.049.165c-.058.3-1.219,7.517,4.059,20.708a.527.527,0,0,0,.222.263,2.981,2.981,0,0,0,1.441.3c1.457,0,4.026-.7,7.682-4.265l.058-.066L57.564,71.4a.527.527,0,0,0,.041-.593Z" transform="translate(-7.495 -8.23)" fill="#cb3332"/>
    <path id="Path_527" data-name="Path 527" d="M99.481,119.559a62.5,62.5,0,0,1-14.886-1.82C73.067,114.866,58.65,104.887,53.43,97.526s-9.057-16-8.744-19.761A10.7,10.7,0,0,1,64.01,76.349c14.425,25.524,38.772,21.72,39.8,21.547h-.091l3.977,21.045A45.817,45.817,0,0,1,99.481,119.559Z" transform="translate(-7.89 -12.522)" fill="#8d7d73"/>
    <path id="Path_528" data-name="Path 528" d="M200.915,67.405c-6.966-47.961-49.492-39.39-49.492-39.39L128.764,10.33A11.157,11.157,0,0,0,123,19.749a11.049,11.049,0,0,0,4.117,8.571c4.051,3.359,8.9,3.343,10.506,3.351,1.161,0,2.4-.074,3.837-.148,17.027-.881,28.529,1.433,33.247,15.907a36.811,36.811,0,0,1,.823,3.771C187.263,55.878,198.593,61.716,200.915,67.405Z" transform="translate(-21.727 -1.825)" fill="#8d7d73"/>
    <path id="Path_529" data-name="Path 529" d="M193.155,72.558s2.083-4.553.642-12.515c-2.61-14.392-22.231-36.969-25.977-3.763,1.6,9.345-1.046,17.48-7.888,24.24-12.844,12.672-38.179,18.666-66.124,15.644-7.2-.823-13.75,3.68-14.639,9.963-.272,1.91,8.02,4.183,25.961,5.253C179.289,114.039,192.6,74.707,193.155,72.558Z" transform="translate(-13.983 -6.903)" fill="#8d7d73"/>
    <path id="Path_530" data-name="Path 530" d="M113.25,93.661h.074a35.3,35.3,0,0,1-9.567,0l4.693-2.915-8.3-8.835a18.855,18.855,0,0,1-8.588-1.391,1.3,1.3,0,0,1-.091.766A16.887,16.887,0,0,1,79.229,91.364a22.913,22.913,0,0,1-7.163.445L68.69,95.925a54.169,54.169,0,0,0,9.963,7.657q1.729,1.021,3.293,1.795a1.334,1.334,0,0,1,.082-.28L84.4,99.169l.585-.2c4.166-1.391,8.234-3.293,8.917-4.249a1.342,1.342,0,0,1,2.561-.708,2.083,2.083,0,0,1-.049,1.7c-1.029,2.256-6.924,4.537-9.987,5.591l-1.91,4.784a1.753,1.753,0,0,1-.214.362A30.465,30.465,0,0,0,92,108.7a1.334,1.334,0,0,1,.716,2.355l1.474.387a61.152,61.152,0,0,0,14.631,1.795,45.377,45.377,0,0,0,8.02-.626Z" transform="translate(-12.133 -14.223)" fill="#933"/>
    <path id="Path_531" data-name="Path 531" d="M133.886,12.188a.527.527,0,0,0-.239-.362L124.392,5.89l-.156-.066A8.884,8.884,0,0,1,119.6,2.078a.535.535,0,0,0-.6-.222.552.552,0,0,0-.387.51c0,.091-.239,9.79-8.5,24.421a.568.568,0,0,0-.058.387c0,.091,2.149,8.95,1.251,13.38a.527.527,0,0,0,.3.593.478.478,0,0,0,.214.049.527.527,0,0,0,.428-.214L133.811,12.6a.527.527,0,0,0,.074-.412Z" transform="translate(-19.438 -0.324)" fill="#933"/>
    <path id="Path_532" data-name="Path 532" d="M146.751,44.535c0,.535,8.925-6.784,16.072-4.644s6.957,9.288-3.392,13.742l29.806,3.573S195.3,26.866,181,25.252s-36.952,6.076-36.952,6.076Z" transform="translate(-25.445 -4.421)" fill="#8d7d73"/>
    <path id="Path_533" data-name="Path 533" d="M130.471,5.908A24.758,24.758,0,0,1,124.707-1.8a.56.56,0,0,0-.535-.321.543.543,0,0,0-.478.4c-3.549,13.026-12.3,27.566-12.35,27.706a.527.527,0,0,0-.066.354c1.021,7.287.535,11.527.28,13.042a6.217,6.217,0,0,1-.14.667.535.535,0,0,0,.28.618.486.486,0,0,0,.239.058.519.519,0,0,0,.42-.206c6.727-8.563,20.955-21.621,21.095-21.753a.56.56,0,0,0,.173-.338C133.641,18.052,134.522,9.4,130.471,5.908Z" transform="translate(-19.655 0.375)" fill="#cb3332"/>
    <path id="Path_534" data-name="Path 534" d="M139.808,58.9c-1.334,3.03-.14,8.052,1.7,12.812l9.551-4.216L149.622,55.84a83.076,83.076,0,0,0-9.757,2.075A1.284,1.284,0,0,1,139.808,58.9Z" transform="translate(-24.595 -9.864)" fill="#933"/>
    <path id="Path_535" data-name="Path 535" d="M143.829,83.627a1.342,1.342,0,0,0,1.144.642,1.367,1.367,0,0,0,.7-.2,1.334,1.334,0,0,0,.445-1.836,70.629,70.629,0,0,1-4.166-8.11l10.514-4.6a1.342,1.342,0,0,0,.823-1.391L151.725,55.46c-.881.1-1.762.214-2.651.346l1.408,11.626-9.543,4.216c-1.836-4.759-3.03-9.782-1.7-12.812a1.285,1.285,0,0,0,0-.988q-1.408.387-2.816.823C133.875,67.16,143.409,82.936,143.829,83.627Z" transform="translate(-24.022 -9.796)" fill="#1a1312"/>
    <path id="Path_536" data-name="Path 536" d="M136.928,4.616c-.049-.041-5.1-4.117-6.381-8.308a.535.535,0,0,0-.51-.379h0a.527.527,0,0,0-.51.387c-.066.206-6.233,21.169-16.821,29.353a.535.535,0,0,0-.189.535,30.588,30.588,0,0,1-.93,13.264.527.527,0,0,0,.2.576.494.494,0,0,0,.313.107.543.543,0,0,0,.3-.091l19.761-12.935a.576.576,0,0,0,.231-.338l4.734-21.638a.51.51,0,0,0-.189-.535Z" transform="translate(-19.707 0.719)" fill="#933"/>
    <ellipse id="Ellipse_32" data-name="Ellipse 32" cx="17.949" cy="8.052" rx="17.949" ry="8.052" transform="translate(94.357 28.345) rotate(-8)" fill="#8d7d73"/>
    <path id="Path_537" data-name="Path 537" d="M207.5,59.185a20.79,20.79,0,0,0,.156-2.857,54.507,54.507,0,0,0-13.923-18.336,47.9,47.9,0,0,0-17.151-9.2A49.533,49.533,0,0,0,156.6,26.934a1.337,1.337,0,0,0,.412,2.643,41.07,41.07,0,0,1,8.077-.123C184.888,28.169,203.339,44.768,207.5,59.185Z" transform="translate(-27.461 -4.704)" fill="#1a1312"/>
    <path id="Path_538" data-name="Path 538" d="M201.361,41.288l-.1-.313a45.556,45.556,0,0,0-10.819-18.254c1.96,3.162,3.425,7.41,1.647,11.8a1.339,1.339,0,1,1-2.487-1c2.816-7.056-5.426-14.121-5.508-14.187a1.334,1.334,0,0,1-.165-1.885l.1-.1a49.525,49.525,0,0,0-13.478-6.439,60.615,60.615,0,0,0-7.13-1.737,28.339,28.339,0,0,1,2.668,1.235c6.192,3.293,9.222,8.052,8.777,13.808a1.342,1.342,0,0,1-1.334,1.235h-.107a1.334,1.334,0,0,1-1.227-1.433c.873-11.313-15.578-14.079-15.743-14.1a1.342,1.342,0,0,1-1.112-1.54,1.729,1.729,0,0,1,.049-.2,112.255,112.255,0,0,0-14.318,0l-.823.041a14.894,14.894,0,0,0-2.841-.231A14.368,14.368,0,0,0,130,9.943l22.667,17.686a33.026,33.026,0,0,1,7.929-1.482,41.07,41.07,0,0,0-8.077.124,1.337,1.337,0,1,1-.412-2.643,49.533,49.533,0,0,1,19.983,1.9,47.9,47.9,0,0,1,17.151,9.2,54.507,54.507,0,0,1,13.915,18.3,43.887,43.887,0,0,0-1.795-11.741Z" transform="translate(-22.963 -1.405)" fill="#933"/>
    <path id="Path_539" data-name="Path 539" d="M116.445,79.817a22.989,22.989,0,0,1-3.1-11.017A61.349,61.349,0,0,0,105,74.728a31.3,31.3,0,0,0,2.124,6.826C108.376,81.644,112.6,80.788,116.445,79.817Z" transform="translate(-18.547 -12.153)" fill="#933"/>
    <path id="Path_540" data-name="Path 540" d="M105.346,83.674a2.553,2.553,0,0,0,1.449.272c1.466,0,4.413-.387,10.638-2.009a42.575,42.575,0,0,0,8.826,9.5,1.309,1.309,0,0,0,.823.263,1.342,1.342,0,0,0,.823-2.4c-.132-.091-12.49-9.567-12.35-21.045a1.317,1.317,0,0,0-.445-1.013c-.757.42-1.5.823-2.231,1.284a22.988,22.988,0,0,0,3.1,11.017c-3.845.972-8.069,1.828-9.288,1.762-.568-.823-1.5-4.018-2.124-6.826-.823.683-1.548,1.367-2.264,2.067.148.593.329,1.268.527,1.96C103.864,82.2,104.581,83.246,105.346,83.674Z" transform="translate(-18.07 -11.877)" fill="#1a1312"/>
    <path id="Path_541" data-name="Path 541" d="M180.566,67.466c-2.643-6.183-9.576-10.49-19.522-12.161-.338-.683-.7-1.367-1.07-2.067A36.458,36.458,0,0,1,158.352,67.8c-2.676,8.11-9.79,18.616-28.48,22.626a1.705,1.705,0,0,1-.288,0,1.334,1.334,0,0,1-.272-2.643c14-3.005,22.922-10.02,26.5-20.847a33.956,33.956,0,0,0,1.408-14.071,6.315,6.315,0,0,1-3.532,1.6,4.051,4.051,0,0,0-.823.123,70.09,70.09,0,0,0-9.057.428l1.6,12.663a1.342,1.342,0,0,1-.823,1.391l-10.523,4.6a70.623,70.623,0,0,0,4.174,8.127,1.334,1.334,0,0,1-.445,1.836,1.367,1.367,0,0,1-.7.2,1.342,1.342,0,0,1-1.144-.642c-.42-.692-9.954-16.467-7.41-24.964l-2.025.65a81.514,81.514,0,0,0-13.371,5.846,1.317,1.317,0,0,1,.445,1.013c-.165,11.478,12.194,20.955,12.35,21.045a1.342,1.342,0,0,1-.823,2.4,1.309,1.309,0,0,1-.823-.263,42.577,42.577,0,0,1-8.835-9.5c-6.225,1.647-9.172,2.009-10.638,2.009a2.552,2.552,0,0,1-1.4-.288c-.757-.428-1.474-1.474-2.52-5.171-.2-.692-.379-1.367-.527-1.96a33.2,33.2,0,0,0-7.311,10c-2.075,4.619-2.272,9.156-.585,13.108,2.692,6.3,9.831,10.654,20.106,12.252a58.3,58.3,0,0,0,8.876.659,79.866,79.866,0,0,0,25.047-4.3c16.138-5.418,28.974-15.051,33.5-25.154C182.057,75.955,182.262,71.419,180.566,67.466Z" transform="translate(-16.133 -9.337)" fill="#933"/>
    <path id="Path_542" data-name="Path 542" d="M163.724,66.413c-3.573,10.827-12.49,17.842-26.5,20.847A1.334,1.334,0,0,0,137.5,89.9a1.71,1.71,0,0,0,.288,0c18.69-4.01,25.8-14.516,28.48-22.626a36.458,36.458,0,0,0,1.6-14.524c-.486-.914-1-1.844-1.531-2.783a3.952,3.952,0,0,1-1.2,2.4A33.955,33.955,0,0,1,163.724,66.413Z" transform="translate(-24.049 -8.827)" fill="#1a1312"/>
    <path id="Path_543" data-name="Path 543" d="M148.55,12.675a.535.535,0,0,0-.461-.288c-.066,0-6.463-.362-12.243-13.174a.535.535,0,0,0-.5-.313.519.519,0,0,0-.486.346c-.066.173-6.686,17.291-21.621,27.171a.535.535,0,0,0-.206.626c.692,1.918.568,7.41-1.449,12.425a.535.535,0,0,0,0,.478.535.535,0,0,0,.568.906c6.677-3.59,24.915-12.35,29.032-9.535l.1.058A27.74,27.74,0,0,1,146.467,34c.346.757,1.169,4.553,1.9,7.912,1.828,8.448,2.314,10.226,2.9,10.555a.568.568,0,0,0,.3.082.543.543,0,0,0,.189,0c.823-.272,3.845-2.067,4.611-4.059S156.577,28.327,148.55,12.675Z" transform="translate(-19.669 0.194)" fill="#cb3332"/>
    <path id="Path_544" data-name="Path 544" d="M195.619,21.354c.082.066,8.324,7.13,5.508,14.187a1.339,1.339,0,1,0,2.487,1c1.762-4.413.3-8.637-1.647-11.8a43.635,43.635,0,0,0-6.4-5.368l-.1.1a1.334,1.334,0,0,0,.148,1.885Z" transform="translate(-34.471 -3.421)" fill="#1a1312"/>
    <path id="Path_545" data-name="Path 545" d="M161.908,9.956c.165,0,16.615,2.791,15.743,14.1a1.334,1.334,0,0,0,1.227,1.433h.107a1.342,1.342,0,0,0,1.334-1.235c.445-5.764-2.585-10.531-8.777-13.808a28.336,28.336,0,0,0-2.668-1.235,72.935,72.935,0,0,0-8.028-1,1.722,1.722,0,0,0-.049.2,1.342,1.342,0,0,0,1.112,1.548Z" transform="translate(-28.4 -1.45)" fill="#1a1312"/>
    <path id="Path_546" data-name="Path 546" d="M120.67,97.571S169.182,78.585,163.6,49.94l27.887,12.4-3.211,27.846-20.345,12.186-22.9,7.361-22.354,2.141Z" transform="translate(-21.315 -8.821)" fill="#8d7d73"/>
    <path id="Path_547" data-name="Path 547" d="M185.651,24.8l17.134,6.323-17.134,6.323a6.743,6.743,0,1,1,0-12.647Z" transform="translate(-31.188 -4.306)" fill="#ededed"/>
    <path id="Path_548" data-name="Path 548" d="M62.749,79.042,56.5,82.821a72.013,72.013,0,0,0,8.135,10.325L68.809,88.1l.766.132c.51.082,12.606,1.976,17.291-8.851a1.284,1.284,0,0,1,.626-.659A18.772,18.772,0,0,1,83.63,75.74a1.3,1.3,0,0,1-.329.5C76.672,82.541,65.491,79.84,62.749,79.042Z" transform="translate(-9.98 -13.379)" fill="#933"/>
    <path id="Path_549" data-name="Path 549" d="M53.9,79.294l7.328-4.43.585.189C61.935,75.053,74,79,80.28,73.036a1.425,1.425,0,0,1,.609-.329,18.319,18.319,0,0,1-2.536-4.117c-8.036,6.1-20.082,2.116-20.082,2.116a10.481,10.481,0,0,0-8.431,1.161,1.161,1.161,0,0,1,.148.239C51.248,74.691,52.557,77.079,53.9,79.294Z" transform="translate(-8.804 -12.116)" fill="#933"/>
    <path id="Path_550" data-name="Path 550" d="M51.777,79.52a7.65,7.65,0,0,1-.4-.823l-3.1-5.459a9.4,9.4,0,0,1,1.054-.823,1.334,1.334,0,0,0-2.256,1.408c8.382,17.233,18.937,26.084,26.348,30.464,8.094,4.808,14.178,5.475,14.434,5.508h.132a1.3,1.3,0,0,0,.823-.313,58.268,58.268,0,0,1-13.174-5.451C67.364,99.387,58.7,91.8,51.777,79.52Z" transform="translate(-8.288 -12.696)" fill="#1a1312"/>
    <path id="Path_551" data-name="Path 551" d="M89.626,108.757a1.342,1.342,0,0,0-1.186-1.466,30.464,30.464,0,0,1-7.682-2.256,1.753,1.753,0,0,0,.214-.362l1.91-4.784c3.063-1.054,8.958-3.293,9.987-5.591a2.083,2.083,0,0,0,.049-1.7,1.342,1.342,0,0,0-2.561.708c-.716.93-4.751,2.857-8.917,4.249l-.585.2-2.371,5.928a1.333,1.333,0,0,0-.082.28q-1.581-.766-3.293-1.795A54.168,54.168,0,0,1,65.147,94.5l3.376-4.117a22.915,22.915,0,0,0,7.163-.445A16.887,16.887,0,0,0,87.913,79.881,1.3,1.3,0,0,0,88,79.116a18.109,18.109,0,0,1-1.918-.955,1.285,1.285,0,0,0-.626.659c-4.685,10.827-16.78,8.925-17.291,8.851l-.766-.132-4.174,5.047a72.01,72.01,0,0,1-8.135-10.325l6.249-3.779c2.742.823,13.907,3.508,20.584-2.8a1.3,1.3,0,0,0,.329-.5,19.757,19.757,0,0,1-1.564-1.77,1.424,1.424,0,0,0-.609.329C73.8,79.7,61.738,75.8,61.615,75.756l-.585-.189L53.7,80c-1.375-2.215-2.684-4.6-3.96-7.188a1.16,1.16,0,0,0-.148-.239,9.4,9.4,0,0,0-1.054.823l3.1,5.459c.124.263.255.527.4.823,6.924,12.276,15.586,19.868,23.877,24.553A58.269,58.269,0,0,0,89.1,109.679,1.326,1.326,0,0,0,89.626,108.757Z" transform="translate(-8.574 -12.819)" fill="#1a1312"/>
    <path id="Path_552" data-name="Path 552" d="M136.766,105.9a13.6,13.6,0,0,0-2.379-7.822c1.243,6.365,0,12.589-1.647,17.488A12.976,12.976,0,0,0,136.766,105.9Z" transform="translate(-23.447 -17.325)" fill="none"/>
    <path id="Path_553" data-name="Path 553" d="M121.139,125.026c.28-.634.6-1.367.939-2.182a9.879,9.879,0,0,1-3.672.716c-6.266,0-11.362-5.945-11.362-13.256s5.1-13.256,11.362-13.256a10.078,10.078,0,0,1,5.253,1.507,16.212,16.212,0,0,0-4.4-5.764,17.291,17.291,0,0,0-11.074-3.952A18.3,18.3,0,0,0,94.6,94.6a12.943,12.943,0,0,0-3.293,10.35,10.374,10.374,0,0,0,.906,3.787,39.591,39.591,0,0,1,1.342,4.166c2.61,9.88,3.475,16.467,2.47,18.427a1.029,1.029,0,0,0-.222.881c.14.453.593.609,1.219.823l.206.074c1.153.494,4.635,1.647,11.733,1.647a90.573,90.573,0,0,0,12.54-.906c1.26-.1,1.647-.667,1.795-1a1.177,1.177,0,0,0-.255-1.243,3.844,3.844,0,0,0-.478-.387c-.914-.675-2.824-2.083-2.355-3.993a19.616,19.616,0,0,1,.93-2.2Z" transform="translate(-16.111 -15.692)" fill="#cb3332"/>
    <path id="Path_554" data-name="Path 554" d="M110.44,112.07c0,7.311,5.1,13.256,11.362,13.256a9.88,9.88,0,0,0,3.672-.716c.486-1.161,1.013-2.47,1.5-3.96a7.707,7.707,0,0,1-5.171,2.067c-4.825,0-8.752-4.775-8.752-10.646s3.927-10.63,8.752-10.63a8.234,8.234,0,0,1,6.587,3.713c-.049-.255-.107-.51-.165-.766a15.43,15.43,0,0,0-1.21-4.051,10.078,10.078,0,0,0-5.253-1.507C115.537,98.814,110.44,104.733,110.44,112.07Z" transform="translate(-19.508 -17.457)" fill="#1a1312"/>
    <path id="Path_555" data-name="Path 555" d="M129,105.693a8.234,8.234,0,0,0-6.587-3.713c-4.825,0-8.752,4.775-8.752,10.646s3.927,10.646,8.752,10.646a7.707,7.707,0,0,0,5.171-2.067C128.983,116.858,130.1,111.342,129,105.693Z" transform="translate(-20.077 -18.014)" fill="#cb3332"/>
    <path id="Path_556" data-name="Path 556" d="M157.566,21.712l14.746,6.323-14.746,6.323c-3.005,1.293-6.34-.494-7.41-3.985s.428-7.369,3.433-8.662A5.031,5.031,0,0,1,157.566,21.712Z" transform="translate(-26.463 -3.763)" fill="#fff"/>
    <path id="Path_557" data-name="Path 557" d="M132.5,91.088,118.79,96.152l13.709,5.055a5.393,5.393,0,1,0,0-10.119Z" transform="translate(-20.983 -16.031)" fill="#ededed"/>
    <path id="Path_558" data-name="Path 558" d="M206.628,37.162l17.142,6.323-17.142,6.323a6.735,6.735,0,1,1,0-12.647Z" transform="translate(-34.899 -6.491)" fill="#ededed"/>
    <path id="Path_559" data-name="Path 559" d="M145.836,84.307,132.16,89.355,145.836,94.4a5.385,5.385,0,1,0,0-10.094Z" transform="translate(-23.345 -14.832)" fill="#fff"/>
    <path id="Path_560" data-name="Path 560" d="M78.814,107.639l-13.264,4.94,13.264,4.891a5.22,5.22,0,1,0,0-9.79Z" transform="translate(-11.579 -18.963)" fill="#fff"/>
    <path id="Path_561" data-name="Path 561" d="M60.764,94.639,47.5,99.579l13.264,4.94a5.22,5.22,0,1,0,0-9.8Z" transform="translate(-8.39 -16.675)" fill="#fff"/>
    <path id="Path_562" data-name="Path 562" d="M47.974,77.939,34.71,82.879,47.974,87.77a5.22,5.22,0,1,0,0-9.79Z" transform="translate(-6.131 -13.717)" fill="#fff"/>
    <ellipse id="Ellipse_33" data-name="Ellipse 33" cx="12.68" cy="12.07" rx="12.68" ry="12.07" transform="translate(126.402 69.166) rotate(-64.49)" fill="#cb3332"/>
    <path id="Path_563" data-name="Path 563" d="M172.859,88.074a.824.824,0,0,1-.28-.049l-11.1-4.183a.823.823,0,0,1-.469-1.029l4.718-12.523a.823.823,0,0,1,1.037-.469l11.091,4.174a.873.873,0,0,1,.453.42.823.823,0,0,1,0,.618L173.6,87.555a.823.823,0,0,1-.428.445A.741.741,0,0,1,172.859,88.074ZM162.8,82.623l9.592,3.615,4.117-11.017-9.559-3.615Z" transform="translate(-28.433 -12.325)" fill="#1a1312"/>
    <path id="Path_564" data-name="Path 564" d="M148.077,96.1c.823-2.33,3.129-8.324,4.7-10.654a5.566,5.566,0,0,0,3.4-3.944s6.249.082,8.933,2.659l1.7.642c3.722-.165,8.472,3.886,8.472,3.886a5.582,5.582,0,0,0-.041,5.212c-.445,3.5-3.87,12.054-3.87,12.054v-.074c-1.82,4.611-8.5,6.373-14.985,3.927s-10.407-8.234-8.645-12.927A6.692,6.692,0,0,1,148.077,96.1Z" transform="translate(-26.022 -14.396)" fill="#cb3332"/>
    <path id="Path_565" data-name="Path 565" d="M162.09,111.214a16.911,16.911,0,0,1-5.953-1.112,15.833,15.833,0,0,1-7.633-5.764,8.351,8.351,0,0,1-1.252-7.657,7.5,7.5,0,0,1,.371-.823c.906-2.47,3.145-8.382,4.726-10.7a.494.494,0,0,1,.222-.165,5.13,5.13,0,0,0,3.129-3.664.4.4,0,0,1,.4-.3c.255,0,6.348.115,9.148,2.717l1.54.585c3.829-.107,8.472,3.82,8.67,3.985a.4.4,0,0,1,.1.486,5.154,5.154,0,0,0-.066,4.825.346.346,0,0,1,.058.255c-.445,3.508-3.755,11.807-3.894,12.161a.427.427,0,0,1-.115.156C170.134,109.387,166.421,111.214,162.09,111.214ZM152.942,85.69c-1.531,2.347-3.705,8.077-4.578,10.457V96.2a6.807,6.807,0,0,0-.329.733,7.5,7.5,0,0,0,1.169,6.933,15.026,15.026,0,0,0,7.237,5.484c6.249,2.355,12.737.692,14.466-3.705a.486.486,0,0,1,.107-.148c.535-1.359,3.293-8.448,3.738-11.6a5.994,5.994,0,0,1,0-5.179c-.988-.823-4.891-3.738-7.962-3.6a.52.52,0,0,1-.156,0l-1.7-.642a.486.486,0,0,1-.14-.082c-2.207-2.132-7.089-2.47-8.357-2.544a5.994,5.994,0,0,1-3.5,3.853ZM148,96.007Z" transform="translate(-25.931 -14.313)" fill="#cb3332"/>
    <ellipse id="Ellipse_34" data-name="Ellipse 34" cx="9.304" cy="10.358" rx="9.304" ry="10.358" transform="translate(125.323 79.396) rotate(-69.37)" fill="#1a1312"/>
    <path id="Path_566" data-name="Path 566" d="M173.8,109.058a3.713,3.713,0,0,1,1.144-2.289.123.123,0,0,1,.074,0h.049l4.314,5.352v.115c0,.033-.14.115-2.709-.963-1.243-.519-2.47-1.054-2.511-1.07C173.755,110.038,173.755,109.782,173.8,109.058Z" transform="translate(-30.696 -18.859)" fill="#fff"/>
    <path id="Path_567" data-name="Path 567" d="M175.16,106.66a.156.156,0,0,1,.049-.058,3.73,3.73,0,0,1,2.47-.675c.716.107.963.156,1.037.552,0,0,.3,1.359.552,2.668.552,2.734.494,2.783.412,2.849s-.1,0-.124,0l-4.389-5.286A.066.066,0,0,1,175.16,106.66Z" transform="translate(-30.94 -18.709)" fill="#ededed"/>
    <path id="Path_568" data-name="Path 568" d="M165.9,110.99a.823.823,0,0,1-.823-.749l-.379-5.656-3.2-4.117-5.179.823-4.841,5.064a.823.823,0,1,1-1.161-1.112l5.031-5.261a.864.864,0,0,1,.453-.239l5.92-.906a.774.774,0,0,1,.749.3l3.656,4.685a.824.824,0,0,1,.165.445l.4,5.9a.823.823,0,0,1-.749.823Z" transform="translate(-26.486 -17.457)" fill="#1a1312"/>
    <path id="Path_569" data-name="Path 569" d="M160.24,109.2a.8.8,0,0,1-.749-1.079l3.293-8.785a.823.823,0,0,1,1.507.56L161,108.685a.823.823,0,0,1-.757.519Z" transform="translate(-28.165 -17.481)" fill="#1a1312"/>
    <path id="Path_570" data-name="Path 570" d="M155.481,110.617a5.047,5.047,0,0,1,4.117-.93.189.189,0,0,1,.1.082.205.205,0,0,1,0,.124l-5.484,14.343a.156.156,0,0,1-.2.091c-.148-.058-.255-.1-.189-5.953,0-2.816.091-5.657.091-5.764C153.966,111.786,154.361,111.465,155.481,110.617Z" transform="translate(-27.168 -19.355)" fill="#fff"/>
    <path id="Path_571" data-name="Path 571" d="M159.633,109.727a.156.156,0,0,1,.123,0,5.08,5.08,0,0,1,2.511,3.442c.28,1.375.362,1.877-.2,2.519-.049.058-1.877,2.24-3.713,4.372-3.8,4.446-3.911,4.4-4.067,4.347a.148.148,0,0,1-.082-.2l5.335-14.392A.165.165,0,0,1,159.633,109.727Z" transform="translate(-27.237 -19.38)" fill="#ededed"/>
    <path id="Path_572" data-name="Path 572" d="M147.575,103.844a4.347,4.347,0,0,1,3.6.56.228.228,0,0,1,.049.2l-8.851,9.7a.132.132,0,0,1-.181,0c-.107-.091-.181-.156,1.7-4.792.914-2.231,1.853-4.479,1.877-4.537C146.011,104.305,146.414,104.174,147.575,103.844Z" transform="translate(-25.108 -18.314)" fill="#fff"/>
    <path id="Path_573" data-name="Path 573" d="M151.094,104.548a.148.148,0,0,1,.1,0,4.323,4.323,0,0,1,.922,3.524c-.206,1.186-.3,1.647-.947,1.943-.058,0-2.19,1.194-4.323,2.322-4.421,2.338-4.5,2.272-4.594,2.182a.124.124,0,0,1,0-.181l8.752-9.79A.14.14,0,0,1,151.094,104.548Z" transform="translate(-25.12 -18.466)" fill="#ededed"/>
    <path id="Path_574" data-name="Path 574" d="M165.857,113.108a4.306,4.306,0,0,1,2.981-2.1.14.14,0,0,1,.1,0,.222.222,0,0,1,.049.1l.379,13.124a.14.14,0,0,1-.124.14c-.14,0-.239,0-2.108-4.636-.9-2.24-1.778-4.5-1.8-4.561C165.034,114.524,165.215,114.145,165.857,113.108Z" transform="translate(-29.179 -19.607)" fill="#fff"/>
    <path id="Path_575" data-name="Path 575" d="M169.5,111.047a.107.107,0,0,1,.1,0,4.314,4.314,0,0,1,3.112,1.886c.675,1,.9,1.367.667,2.058,0,.058-.741,2.38-1.49,4.668-1.548,4.759-1.647,4.759-1.778,4.767a.14.14,0,0,1-.14-.124l-.51-13.124A.124.124,0,0,1,169.5,111.047Z" transform="translate(-29.932 -19.613)" fill="#ededed"/>
    <ellipse id="Ellipse_35" data-name="Ellipse 35" cx="8.324" cy="9.378" rx="8.324" ry="9.378" transform="translate(127.046 77.617) rotate(-69.37)" fill="#cb3332"/>
    <path id="Path_576" data-name="Path 576" d="M151.231,17.83s-17.225.708-27.311,13.47l4.281,1.433a8.571,8.571,0,0,1-2.141,5.261l1.647-.626s4.734-8.835,11.609-9.37l.98-6.159a23.984,23.984,0,0,1,11.683-2.676Z" transform="translate(-21.889 -3.149)" fill="#1a1312"/>
    <path id="Path_577" data-name="Path 577" d="M125.975,38.311a.412.412,0,0,1-.338-.181.4.4,0,0,1,.058-.5,8.028,8.028,0,0,0,2-4.7L123.711,31.6a.4.4,0,0,1-.189-.634C133.6,18.2,150.956,17.348,151.128,17.34a.4.4,0,0,1,.371.214l.716,1.334a.412.412,0,0,1,0,.4.428.428,0,0,1-.346.189A24.322,24.322,0,0,0,140.532,22l-.947,5.969a.412.412,0,0,1-.371.338c-6.587.51-11.231,9.057-11.28,9.156a.354.354,0,0,1-.206.189l-1.647.626Zm-1.466-7.254,3.738,1.243a.412.412,0,0,1,.272.4,9.551,9.551,0,0,1-1.317,4.347h.1c.634-1.136,5.08-8.686,11.527-9.419l.939-5.846a.387.387,0,0,1,.189-.288,24.075,24.075,0,0,1,11.231-2.783l-.272-.519C148.8,18.311,133.78,19.785,124.509,31.057Z" transform="translate(-21.803 -3.063)" fill="#1a1312"/>
  </g>
  <text id="RUBY" transform="translate(5.258 54.093)" fill="#fff" font-size="29" font-family="BebasNeue-Bold, Bebas Neue" font-weight="700"><tspan x="0" y="0" letter-spacing="-0.01em">RUB</tspan><tspan y="0">Y</tspan></text>
</svg>
