<svg id="Pokefinder_Assets_NEW_Sapphire_Button" data-name="Pokefinder_Assets NEW_Sapphire_Button" xmlns="http://www.w3.org/2000/svg" xmlns:xlink="http://www.w3.org/1999/xlink" width="198.298" height="97.527" viewBox="0 0 198.298 97.527">
  <defs>
    <clipPath id="clip-path">
      <rect id="Rectangle_26" data-name="Rectangle 26" width="198.298" height="97.527" rx="19.18" fill="none"/>
    </clipPath>
  </defs>
  <rect id="Rectangle_25" data-name="Rectangle 25" width="198.298" height="97.527" rx="19.18" fill="#002a3d"/>
  <g id="Group_22" data-name="Group 22" clip-path="url(#clip-path)">
    <path id="Path_578" data-name="Path 578" d="M107.85,67.551a18.113,18.113,0,0,1,.823,5.706h0c.1,5.014-5.887-.576-8.341-.881-4.545-.56-9.246.823-13.816.568a38.813,38.813,0,0,1-9-1.713,102.344,102.344,0,0,1-27.36-13.026c-4.2-2.8-5.047-4.117-4.281-8.629C46.7,44.48,49.6,39.3,52,34.756s8.8-14.689,14.458-15.5c3.705-.535,8.851,5.294,11.469,7.493A72.951,72.951,0,0,1,89.316,38.882c3.211,4.207,5.171,9.057,7.9,13.6,1.647,2.668,2.956,5.607,5.228,7.781C104.919,62.644,106.566,64.085,107.85,67.551Z" transform="translate(-8.059 -3.395)" fill="#01456b"/>
    <path id="Path_579" data-name="Path 579" d="M91.076,50.341h0c-4.479-15.059-26.348-7.1-23.6,7.287C70.657,74.342,95.819,66.339,91.076,50.341Zm-2.322,0C90.4,55.5,88.82,60.7,83.979,63.293s-11.033,1.96-13.487-3.573c-5.393-12.161,14-22.47,18.262-9.378Zm-16.179-2.8-.049.049Z" transform="translate(-11.877 -7.46)" fill="#ef003c"/>
    <path id="Path_580" data-name="Path 580" d="M67.632,49.585c-.445,1.161-12.219-3.746-13.413-4.94.066-.058-.239-1.1.156-1.49s1.07.041,1.564.041c1.713,0,4.586,2.017,6.068,2.857.667.379,5.969,2.585,5.624,3.516Z" transform="translate(-9.568 -7.594)" fill="#ef003c"/>
    <path id="Path_581" data-name="Path 581" d="M71.525,43.722h0c.165-1.556-3.582-4.059-4.487-5.031-.642-.692-4.553-6.274-5.846-4.7s4.858,6.966,5.986,7.954C67.507,42.232,71.295,46.061,71.525,43.722Zm-5.582-2.874.074.066Zm.082.074.049.049Zm0,0,.124.115ZM66.1,41l.132.123-.148-.14h0Z" transform="translate(-10.778 -5.955)" fill="#ef003c"/>
    <path id="Path_582" data-name="Path 582" d="M75.108,31.82c.823,2.264-.9,2.314-1.144,4.174-.206,1.556,1.853,1.984,1.951,3.631.124,2.182-3.672-2.025-3.779-3.195-.14-1.581,1.169-2.47.98-4.067-.288-2.314-3.59-4.94-3.466-7.114.28-5,5.031,5.344,5.459,6.587Z" transform="translate(-12.302 -4.221)" fill="#ef003c"/>
    <path id="Path_583" data-name="Path 583" d="M65.2,57.393h0c.14-1.309-2.47-1.507-3.236-1.408-2.7.379-1.918,2.618-3.433,3.368-1.112.543-10.7-4.4-8.085-.708,1.531,2.19,8.4,3.293,9.921,1.3.42-.535.28-1.943.9-2.289.461-.255,1.169.362,1.647.222.667-.214,2.133,1.1,2.314-.486Zm-3.96.247Zm-2.47,1.844Z" transform="translate(-8.831 -9.885)" fill="#ef003c"/>
    <path id="Path_584" data-name="Path 584" d="M67.278,41.605c-.255,1.35-3.442,5.335-4.94,4.808C58.978,45.195,67.937,38,67.278,41.605Z" transform="translate(-10.878 -7.172)" fill="#ef003c"/>
    <path id="Path_585" data-name="Path 585" d="M56.862,33.731c.469,3.022-3.293-.626-3.9-1.309-.7-.823-3.8-3.96-2.47-5.022,1.441-1.169,6.225,5.2,6.4,6.332Z" transform="translate(-8.86 -4.815)" fill="#fff"/>
    <path id="Path_586" data-name="Path 586" d="M71.49,18.5c-.379,2.808-4.619,6.406-7.575,5.393-1.268-.436-4.586-5.582-4.545-6.99.074-2.207,4.314-4.636,6.085-3.985,1.1.412,6.192,4.479,6.035,5.582Z" transform="translate(-10.487 -2.263)" fill="#acebfc"/>
    <path id="Path_587" data-name="Path 587" d="M60.48,27.65a1.367,1.367,0,0,0-.774-1.161c-1.383-1.647-5.162-3.812-6.29-3.87-1.433-.066-3.713,1.943-3.878,3.293v.173a1.647,1.647,0,0,0-.214.206c-1.647,1.993,3.722,6.43,5.9,6.628-.634,1.3.955,1.515,2.635.4A6.142,6.142,0,0,0,60.48,27.65Z" transform="translate(-8.658 -3.995)" fill="#acebfc"/>
    <path id="Path_588" data-name="Path 588" d="M53.124,38.241c.733,2.347-1.284,7.279-3.985,7.41-1.647.091-5.146-3.153-5.764-4.57-.766-1.729.239-5.533,2.47-6.076,1.136-.272,6.817,1.762,7.279,3.219Z" transform="translate(-7.617 -6.179)" fill="#acebfc"/>
    <path id="Path_589" data-name="Path 589" d="M48.1,51.537c-.231-1-.667-1.136-1.1-.906-1.647-.823-5.541-1.029-6.134-.963-1,.107-1.433-.231-1.976.527a5.566,5.566,0,0,0-1.383,2.058c-1.21,3.516,1,4.792,3.853,6.06.865.387,4.652,2.314,5.014.486C48.664,57.514,48.557,53.644,48.1,51.537Z" transform="translate(-6.566 -8.771)" fill="#acebfc"/>
    <path id="Path_590" data-name="Path 590" d="M162.091,17.419c-1.457.321-11.461,3.442-10.358,4.38-3.079,1.729.123,6.76,1.7,7.789,1.861,1.227,4.487,1.4,6.677,1.457a46.734,46.734,0,0,0,9.263-.963c.338-.058,6.8-.387,5.607-1.894,1.144-.56,1.523-6.381,2.042-7.468.321-.675,2.174-2.7,1.877-3.54-1.367-3.829-14.178-.346-16.813.239Z" transform="translate(-26.575 -2.722)" fill="#01456b"/>
    <path id="Path_591" data-name="Path 591" d="M165.463,15.25c-3.952.889-8.942,2.207-12.35,4.438-.823.519-2.725,1.276-2.025,2.536.535.963,3.573-1.054,4.01-1.243,7.41-3.293,15.512-5.344,23.6-3.927-1.268,1.778-4.586,6.908-3.491,9.312,1.762,3.886,2.33-1.877,2.709-3.137,1-3.236,5.764-6.587,1.367-8.283-4.01-1.531-9.757-.6-13.791.3Z" transform="translate(-26.661 -2.496)" fill="#ef003c"/>
    <path id="Path_592" data-name="Path 592" d="M49.865,77.516c-1.647.478-2.931,4.94-3.293,6.241-1.227,4.224-1.367,8.382,2.149,11.338,4.249,3.582,11.313,5.286,16.55,6.875,6.71,2.034,13.841,2.355,20.815,2.577,4.553.148,9.222-1.07,13.445.609h0c2.981,1.153,7.41,4.586,10.7,3.376,4.117-1.523,4.339-7.089,9.18-7.937,3.137-.543,7.954.568,8.448-3.483.3-2.561-.823-5.92-1.194-8.431-.906-5.615-2.544-13.371-9.559-13.421-4.257,0-8.876,1.647-13.1,2.272a191.59,191.59,0,0,1-25.524,1.82c-4.471,0-8.81-1.062-13.3-1.054-4.636,0-9.395-.049-13.915-.231A1.186,1.186,0,0,0,49.865,77.516Z" transform="translate(-8.087 -13.294)" fill="#acebfc"/>
    <path id="Path_593" data-name="Path 593" d="M217.681-28.933c-.889.2-.527,3.763-.675,4.4-.823,3.491-3.046,5.764-5.854,7.707-3.944,2.725-8.234,8.678-6.645,13.865.889,2.9,6.216,5.055,9.008,6.126,2.421.93,5.064,1.021,7.542,1.721,2.05.576,4.117,1.754,6.274,1.853s4.24-.593,3.985-3.623C231.019-.3,226.837.8,225.091-1.54c-2.3-3.1,4.6-7.41,7.015-8.917,1.886-1.2,4.364-2.3,5.764-4.117.585-.741,2.676-4.586,1.647-5.582-1.293-1.26-3.853,1.729-5.228,1.359-1.153-.3-1.367-3.079-2.824-3.557-2.585-.823-2.149,2.165-4.051,4.043l.173.074c-3.211,2.47-6.785,5.006-9.057,8.341-1.235,1.8-1.391,5.665-3.853,4.94-3.606-1.079,1.721-5.813,3.211-7.2,2.635-2.47,5.508-5.014,5.936-8.761l.264.222c.379-1.062,1.737-5.3.93-6.472-1.375-1.984-1.647.074-3.45,1.606-.4-1.433-2.1-3.787-3.9-3.392Z" transform="translate(-36.064 5.121)" fill="#01456b"/>
    <path id="Path_594" data-name="Path 594" d="M235.171-15.3c-1.326.3-1.013,6.982-1.391,8.234-2,6.455-8.538,8.522-11.8,14-2.717-3.755,4.364-7.608,6.192-10.226.988-1.408,2.725-4.636,1.647-6.537-1.276-2.3-1.523-.823-3.244.478-2.47-5.484-3.508-2.347-4.537.823-1.383,4.273-5.311,5.558-7.6,9.279-1.647,2.725-2.141,4.29-3.862,5.879.338-2.544.955-8.02-2.38-8.752-3.014-.659-6.307,4.775-7.978,6.488a46.668,46.668,0,0,1-16.27,10.844c-13.841,5.179-29.723,2.775-43.877.436-20.1-3.293-40.8,2.24-58.689,11.074C66.769,33.94,56.757,45.962,49.651,60.362c-1.177,2.388-3.433,5.582-3.022,8.316s.461,1.482,3.417,1.787c5.278.535,14.368,3.524,19.11,1.754,2.519-.939,3.837-4.273,6.867-5,5.467-1.309,7.41,3.2,11.3,4.528,5.2,1.77,16.591-1.82,21.679-3.392,2.281-.7,7.773-3.8,9.88-3.442,3.516.6,5.912,7.88,6.348,11.025.354,2.577-1.136,7.624,1.474,8.629,1.128.428,4.718-1,6.019-1.359a134.257,134.257,0,0,0,47.5-24.89c7.682-6.29,12.68-13.89,17.5-22.428,2.61-4.619,4.874-9.436,7.3-14.137,1.128-2.2,1.9-5.121,3.4-7.064,1.334-1.737.42-1.424,2.536-1.795,4.668-.823,10.144,3.359,14.672,3.886,7.41.823,6.068-4.117,9.123-9.139,2.816-4.619,7.525-6.587,9.057-12.416.42-1.6,1.647-8.555-.543-9.633-1.795-.873-2.915,2.058-3.746,3.384-.692-1.383-2.627-4.652-4.331-4.273Z" transform="translate(-8.228 2.707)" fill="#005d9c"/>
    <path id="Path_595" data-name="Path 595" d="M81.424,83.843c-4.117,1.284-5.014,5.574,0,6.035a9.354,9.354,0,0,0,5.764-2.083c.708-.626,2.19-1.046,1.564-2.421-.486-1.07-1.647-.914-2.412-.263-.692-1.169-3.779-1.647-4.883-1.268Z" transform="translate(-13.776 -14.787)"/>
    <path id="Path_596" data-name="Path 596" d="M131.937,80.113c-1.21,1.647,1.647,3.293,2.536,4.471a19.134,19.134,0,0,1,2.832,6.834c.338,1.359.313,12.2,3.475,10.416,2.775-1.556-.543-12.3-1.334-14.417-.486-1.326-4.94-10.7-7.493-7.295Zm5.212,10.7v0Z" transform="translate(-23.253 -14.022)" fill="#ef003c"/>
    <path id="Path_597" data-name="Path 597" d="M116.909,79.431c-3.1.716-5.936,2.519-8.958,3.516-3.779,1.243-7.83,1.581-11.733,2.256-.93.156-6.587.716-9.444,1.82a9.938,9.938,0,0,0-3.6-4.874c-4.85-2.874-10.177.091-13.7,3.293-1.5,1.383-.782,1.424-2.8,1.844a6.986,6.986,0,0,1-.725.115c-2.042-.206-4.38-.173-5.541-.206l-1.474-.173h0c-2.635-.469-6.414-1.6-9.411-1.721H48.6l-.4-.272a2.569,2.569,0,0,0-1.161-.469.873.873,0,0,0-.823.412.922.922,0,0,0,0,.889v.115a.469.469,0,0,0,.049.618c.749,1.729,10.58,3.442,11.98,3.615,3.837.478,9.658,1.5,12.754-1.219l.3-.28a9.059,9.059,0,0,0,1.581,1.054,6.946,6.946,0,0,0,.725.486,5.368,5.368,0,0,0,3.343.667,8.052,8.052,0,0,0,3.236-1.186c.568-.338,1.1-.716,1.647-1.1a5.468,5.468,0,0,0,1.153-.972l.148-.123a6.241,6.241,0,0,0,1.449,1.836,3.532,3.532,0,0,0,1.5.716,3.747,3.747,0,0,0,1.6.148,6.957,6.957,0,0,0,.692-.156c2.8-.049,6.752-1.383,8.621-1.7,3.293-.56,6.686-.881,9.88-1.721a66.8,66.8,0,0,0,9.971-3.837c.988-.436,2.3-.371,2.536-1.647C119.717,79.579,118.227,79.126,116.909,79.431Zm-35.75,5.393a2.47,2.47,0,0,1,.659.609c-1.721,1.2-4.3,3.969-6.727,3.195-.486-.156-1.136-.98-1.82-1.82C75.4,84.824,77.832,83.07,81.159,84.824Z" transform="translate(-8.143 -14.015)" fill="#ef003c"/>
    <path id="Path_598" data-name="Path 598" d="M210.2,43.077c-1.186-2.034-4.759-8.5-7.847-6.941a24.923,24.923,0,0,1-7.46,2.355c-.823.14-4.2.609-4.38.56s.082-1.383.074-1.943a22.494,22.494,0,0,1,.914-6.587c.5-1.647,2.289-3.293,2.569-4.808.609-3.293-1.647-2.511-4.8-1.721a44.791,44.791,0,0,0-20.3,12.07c-2.594,2.684-5.459,5.936-6.859,9.477-.379.972-.617,2.791.082,3.433s.494.231,1.507,1.029c2.668,2.083,4.43,3.433,6.4,6.365a40.162,40.162,0,0,1,6.027,12.721c.42,1.721.206,6.587,1.317,7.88,2.766,3.145,2.067-3.524,1.885-4.94a38.384,38.384,0,0,0-4.537-13.495c-.823-1.5-6.628-9.765-10.473-11.8.716-1.383,1.334-3.063,1.811-3.779a40.188,40.188,0,0,1,6.315-7.369c4.85-4.512,12.293-8.785,18.855-9.814-1.647,2.651-4.586,10.243-2.734,13.355a3.943,3.943,0,0,0,.889,1.219c1.235,1.161,9.123-.338,10.49-.823,3.582-1.268,3.623-1.778,6.307,1.548,2.561,3.17,3.664,6.793,5.138,10.5h0c.823,1.828,1.82-.387,1.927-1.1C213.613,48.5,211.151,44.707,210.2,43.077Z" transform="translate(-28.571 -4.116)" fill="#ef003c"/>
    <path id="Path_599" data-name="Path 599" d="M105.006,49.575C97.892,51.156,87.18,58.1,85.517,65.738c-2.594,11.84,12.737,6.99,18.344,3.96,5.344-2.874,15.883-10.127,11.354-17.291C113.149,49.114,108.456,48.809,105.006,49.575Z" transform="translate(-15.054 -8.695)" fill="#acebfc"/>
    <path id="Path_600" data-name="Path 600" d="M131.584,60.2c-3.055,1.054-10.407,4.57-8.538,9.057,1.21,2.906,5.475,1.029,7.41.189,2.651-1.144,5.162-2.758,5.764-5.9s-1.309-4.479-4.652-3.335ZM125.186,68.2Zm.461-.058.074.066h-.082v-.091Z" transform="translate(-21.682 -10.564)" fill="#acebfc"/>
    <path id="Path_601" data-name="Path 601" d="M195.179,58.831a36.12,36.12,0,0,0-5.838,2.19c-2.659,1.161-2.561,1.894-1.647,4.528,1.07,3.195,2.725,6.06,3.516,9.4.576,2.47.091,4.685,2.832,4.43s7.41-4.191,7.954-6.875-3.112-14.491-6.776-13.676Z" transform="translate(-33.052 -10.385)" fill="#acebfc"/>
    <path id="Path_602" data-name="Path 602" d="M211.892,51.979a2.086,2.086,0,0,0-.264.173h0c-1.762,1.589-7.056,2.651-7.32,5.22-.132,1.276,2.289,4.174,2.676,5.451.453,1.515.091,4.257.947,5.492,2.083,2.981,7.41-3.293,8.234-5.426.568-1.564-1.993-12.186-4.265-10.9Z" transform="translate(-36.088 -9.164)" fill="#acebfc"/>
    <path id="Path_603" data-name="Path 603" d="M156.092,82.993a20.584,20.584,0,0,0-5.237,4.117h0c-4.067,4.117,5.418,4.174,7.723,5.862,4.273,3.129,7.114,8.044,11.2,11.42a44.865,44.865,0,0,0,8.95,5.689,118.349,118.349,0,0,0,33.412,10.7c5.764.963,7.493.552,10.448-3.886,3.293-4.94,5.006-11.618,6.587-17.365s4.216-19.349.1-24.511c-2.709-3.392-11.659-2.561-15.644-2.775A84.484,84.484,0,0,0,194.436,73.5c-6.043,1-11.527,3.565-17.439,5.2-3.483.972-6.933,2.388-10.58,2.421-3.977,0-6.513-.058-10.325,1.869Z" transform="translate(-26.47 -12.744)" fill="#01456b"/>
    <path id="Path_604" data-name="Path 604" d="M197.43,82.9c-16.673,9.74-1.795,36.417,14.129,24.841C225.259,97.79,213.14,73.764,197.43,82.9Zm1.943,1.861c14-7.657,22.157,16.4,7.97,22.379-6.455,2.725-12.128-1.515-14.2-7.674-2.034-6.027.733-11.692,6.233-14.705ZM215.256,95.2Z" transform="translate(-33.581 -14.284)" fill="#ef003c"/>
    <path id="Path_605" data-name="Path 605" d="M221.483,102.731c-.552,1.334,13.264,6.521,15.207,6.472,0-.091,1.07-.733,1.046-1.375,0-.823-.93-.823-1.35-1.2-1.457-1.35-5.467-1.935-7.41-2.4-.823-.206-7.089-2.552-7.526-1.49Z" transform="translate(-39.117 -18.098)" fill="#ef003c"/>
    <path id="Path_606" data-name="Path 606" d="M222.761,95.579c-1.647,2.215,4.561,1.935,5.064,1.951,1.737.058,11.189.428,11.354-1.968s-7.558-.741-8.653-.667C228.993,94.995,223.856,94.138,222.761,95.579Zm6.982,2Zm-.132,0Zm0,0Zm-.124,0Z" transform="translate(-39.299 -16.652)" fill="#ef003c"/>
    <path id="Path_607" data-name="Path 607" d="M228.946,82.812c-2.47,1.276-1.079,2.659-2.347,4.43-1.054,1.474-3.162.231-4.529,1.531-1.828,1.737,4.7,1.194,5.714.3,1.375-1.219.988-3.03,2.4-4.2,2.083-1.729,6.957-1.342,8.563-3.293,3.722-4.446-8.472.51-9.8,1.194Z" transform="translate(-39.17 -14.086)" fill="#ef003c"/>
    <path id="Path_608" data-name="Path 608" d="M217.865,109.966c-1.112,1.482,1.169,1.54,1.564,2.248.264.478,1.35.51,1.54,1.1.247.823-.98,1.861-1.054,2.643-.263,2.865,6.373,7.41,9.4,6.768,5.1-1.062-6.875-4.471-7.41-5.813-.683-1.828,1.754-3.1-.231-5.558-.543-.675-2.923-2.594-3.837-1.383Zm3.121,3.376Zm.618,3.5Z" transform="translate(-38.43 -19.355)" fill="#ef003c"/>
    <path id="Path_609" data-name="Path 609" d="M230.306,96.5c-.823,1.35-1.326,7.229.329,7.937C234.423,106.08,232.578,92.907,230.306,96.5Z" transform="translate(-40.546 -16.935)" fill="#ef003c"/>
    <path id="Path_610" data-name="Path 610" d="M243.181,104.654c-2.47,1.391-4.685,7.147-2.52,9.411,1.334,1.4,6.834,1.424,8.481.725,2.017-.823,4.174-4.858,2.734-7.081C251.134,106.573,244.729,103.782,243.181,104.654Z" transform="translate(-42.355 -18.457)" fill="#acebfc"/>
  </g>
  <rect id="Rectangle_27" data-name="Rectangle 27" width="198.298" height="97.527" rx="19.18" fill="#002a3d" opacity="0.25"/>
  <text id="Sapphire" transform="translate(6.377 62.276)" fill="#fff" font-size="33" font-family="BebasNeue-Bold, Bebas Neue" font-weight="700" letter-spacing="-0.02em"><tspan x="0" y="0">Sapp</tspan><tspan y="0" letter-spacing="-0.04em">hi</tspan><tspan y="0" letter-spacing="-0.03em">r</tspan><tspan y="0">e</tspan></text>
</svg>
