<svg xmlns="http://www.w3.org/2000/svg" width="35.478" height="35.478" viewBox="0 0 35.478 35.478">
  <g id="Pokefinder_Assets_Settings_Cog" transform="translate(-0.001)" opacity="0.78">
    <g id="Group_10" data-name="Group 10" transform="translate(0.778 0.777)">
      <g id="Group_9" data-name="Group 9">
        <path id="Path_32" data-name="Path 32" d="M32.965,14.178l-2.381-.4a13.431,13.431,0,0,0-.957-2.31L31.03,9.5A2.09,2.09,0,0,0,30.8,6.8L28.692,4.688A2.084,2.084,0,0,0,26,4.462l-1.97,1.4a13.367,13.367,0,0,0-2.395-.985l-.4-2.353a2.093,2.093,0,0,0-2.07-1.75H16.184a2.093,2.093,0,0,0-2.07,1.75L13.7,4.936a13.1,13.1,0,0,0-2.3.971L9.451,4.5a2.093,2.093,0,0,0-2.7.227L4.632,6.844a2.1,2.1,0,0,0-.227,2.7l1.418,1.991a13.117,13.117,0,0,0-.942,2.317l-2.353.4a2.093,2.093,0,0,0-1.75,2.07V19.3a2.093,2.093,0,0,0,1.75,2.07l2.409.411a13.1,13.1,0,0,0,.971,2.3l-1.4,1.942a2.09,2.09,0,0,0,.227,2.7L6.851,30.84a2.084,2.084,0,0,0,2.693.227l1.991-1.418a13.353,13.353,0,0,0,2.24.921l.4,2.381a2.093,2.093,0,0,0,2.07,1.75h2.99a2.093,2.093,0,0,0,2.07-1.75l.4-2.381a13.431,13.431,0,0,0,2.31-.957l1.963,1.4a2.084,2.084,0,0,0,1.219.39h0a2.079,2.079,0,0,0,1.481-.617l2.112-2.112a2.1,2.1,0,0,0,.227-2.7l-1.4-1.97a13.415,13.415,0,0,0,.957-2.31l2.381-.4a2.093,2.093,0,0,0,1.75-2.07V16.247A2.07,2.07,0,0,0,32.965,14.178ZM32.8,19.231a.184.184,0,0,1-.156.184l-2.976.5a.953.953,0,0,0-.766.7,11.316,11.316,0,0,1-1.233,2.969.958.958,0,0,0,.042,1.042l1.75,2.467a.194.194,0,0,1-.021.241l-2.112,2.112a.185.185,0,0,1-.242.021l-2.459-1.75a.958.958,0,0,0-1.042-.042A11.316,11.316,0,0,1,20.617,28.9a.939.939,0,0,0-.7.766l-.5,2.976a.184.184,0,0,1-.184.156H16.245a.184.184,0,0,1-.184-.156l-.5-2.976a.953.953,0,0,0-.7-.766,11.761,11.761,0,0,1-2.906-1.191.988.988,0,0,0-.482-.128.932.932,0,0,0-.553.177L8.443,29.527a.21.21,0,0,1-.107.035.192.192,0,0,1-.135-.056L6.089,27.394a.193.193,0,0,1-.021-.241l1.743-2.445a.97.97,0,0,0,.042-1.049A11.21,11.21,0,0,1,6.606,20.7.969.969,0,0,0,5.84,20l-3-.51a.184.184,0,0,1-.156-.184V16.318a.184.184,0,0,1,.156-.184l2.955-.5a.959.959,0,0,0,.773-.708,11.3,11.3,0,0,1,1.212-2.976.946.946,0,0,0-.049-1.035L5.972,8.438A.191.191,0,0,1,5.993,8.2L8.1,6.085a.185.185,0,0,1,.242-.021l2.445,1.743a.97.97,0,0,0,1.049.042A11.21,11.21,0,0,1,14.8,6.6a.969.969,0,0,0,.7-.766l.51-3a.184.184,0,0,1,.184-.156h2.983a.184.184,0,0,1,.184.156l.5,2.955a.959.959,0,0,0,.708.773,11.473,11.473,0,0,1,3.04,1.247.958.958,0,0,0,1.042-.042L27.1,6.014a.21.21,0,0,1,.107-.035.192.192,0,0,1,.135.056l2.112,2.112a.193.193,0,0,1,.021.241l-1.75,2.459a.958.958,0,0,0-.042,1.042,11.316,11.316,0,0,1,1.233,2.969.939.939,0,0,0,.766.7l2.976.5a.184.184,0,0,1,.156.184v2.983H32.8Z" transform="translate(-0.778 -0.777)" fill="#d6d6d6" stroke="#d6d6d6" stroke-miterlimit="10" stroke-width="1.554"/>
        <path id="Path_33" data-name="Path 33" d="M17.67,10.342a7.321,7.321,0,1,0,7.321,7.321A7.325,7.325,0,0,0,17.67,10.342Zm0,12.729a5.408,5.408,0,1,1,5.408-5.408A5.411,5.411,0,0,1,17.67,23.071Z" transform="translate(-0.706 -0.705)" fill="#d6d6d6" stroke="#d6d6d6" stroke-miterlimit="10" stroke-width="1.554"/>
      </g>
    </g>
  </g>
</svg>
